<svg width="100" height="100" viewBox="0 0 100 100" fill="none" xmlns="http://www.w3.org/2000/svg">
<circle cx="50" cy="50" r="50" fill="#10E25B"/>
<circle cx="50" cy="50" r="42" fill="black"/>
<path d="M20.6972 36.9766C24.2936 33.3802 30.1244 33.3802 33.7207 36.9766L46.7441 50L33.7207 63.0234C30.1244 66.6198 24.2936 66.6198 20.6972 63.0234C17.1009 59.4271 17.1009 53.5963 20.6972 50C17.1009 46.4037 17.1009 40.5729 20.6972 36.9766Z" fill="#10E25B"/>
<path d="M36.9766 20.6972C33.3802 24.2936 33.3802 30.1244 36.9766 33.7207L50 46.7441L63.0234 33.7207C66.6198 30.1244 66.6198 24.2936 63.0234 20.6972C59.4271 17.1009 53.5963 17.1009 50 20.6972C46.4037 17.1009 40.5729 17.1009 36.9766 20.6972Z" fill="#10E25B"/>
<path d="M63.0234 79.3028C66.6198 75.7064 66.6198 69.8756 63.0234 66.2793L50 53.2559L36.9766 66.2793C33.3802 69.8756 33.3802 75.7064 36.9766 79.3028C40.5729 82.8991 46.4037 82.8991 50 79.3028C53.5963 82.8991 59.4271 82.8991 63.0234 79.3028Z" fill="#10E25B"/>
<path d="M79.3028 63.0234C75.7064 66.6198 69.8756 66.6198 66.2793 63.0234L53.2559 50L66.2793 36.9766C69.8756 33.3802 75.7064 33.3802 79.3028 36.9766C82.8991 40.5729 82.8991 46.4037 79.3028 50C82.8991 53.5963 82.8991 59.4271 79.3028 63.0234Z" fill="#10E25B"/>
</svg>
