<svg width="100" height="100" viewBox="0 0 100 100" fill="none" xmlns="http://www.w3.org/2000/svg">
<circle cx="50" cy="50" r="50" fill="#00EAFF"/>
<circle cx="50" cy="50" r="42" fill="black"/>
<path d="M17 35.6915C17 35.1781 17.4206 34.7718 17.9234 34.6679C19.7566 34.2894 21.1992 32.8056 21.5604 30.9243C21.6572 30.4201 22.0641 30 22.5775 30H77.4225C77.9359 30 78.3428 30.4201 78.4396 30.9243C78.8008 32.8056 80.2434 34.2894 82.0767 34.6679C82.5794 34.7718 83 35.1781 83 35.6915V64.3085C83 64.8219 82.5794 65.2282 82.0767 65.3321C80.2434 65.7106 78.8008 67.1944 78.4396 69.0757C78.3428 69.5799 77.9359 70 77.4225 70H22.5775C22.0641 70 21.6572 69.5799 21.5604 69.0757C21.1992 67.1944 19.7566 65.7106 17.9234 65.3321C17.4206 65.2282 17 64.8219 17 64.3085V35.6915Z" fill="#FE01FA"/>
<path d="M41.1269 49H42.8076V38.5887H41.35V44.8206H41.3202L39.6693 38.5887H37.6168V49H39.0893V41.4593H39.119L41.1269 49ZM47.608 38.5887H45.2134L43.5476 49H45.0498L45.3324 47.1111H47.3403L47.6229 49H49.2738L47.608 38.5887ZM46.3141 40.433H46.3438L47.1172 45.6981H45.5406L46.3141 40.433ZM52.2965 38.5887H50.0209V49H51.4487V41.6377H51.4784L52.6683 49H54.2151L55.3157 41.5336H55.3455V49H56.8923V38.5887H54.6167L53.5161 45.9807H53.4863L52.2965 38.5887ZM59.7184 40.0761H62.5444V38.5887H58.0824V49H62.5444V47.5127H59.7184V44.4637H61.9643V42.9763H59.7184V40.0761ZM39.9362 57.1181V58.6054C39.9362 59.3491 39.609 59.6168 39.0884 59.6168C38.5678 59.6168 38.2406 59.3491 38.2406 58.6054V52.9833C38.2406 52.2397 38.5678 51.9571 39.0884 51.9571C39.609 51.9571 39.9362 52.2397 39.9362 52.9833V54.0988H41.483V53.0874C41.483 51.4216 40.6501 50.4697 39.0438 50.4697C37.4375 50.4697 36.6046 51.4216 36.6046 53.0874V58.5013C36.6046 60.1671 37.4375 61.119 39.0438 61.119C40.6501 61.119 41.483 60.1671 41.483 58.5013V57.1181H39.9362ZM42.4757 61H46.8038V59.5127H44.1117V50.5887H42.4757V61ZM51.1448 50.5887H48.7502L47.0844 61H48.5866L48.8692 59.1111H50.8771L51.1596 61H52.8106L51.1448 50.5887ZM49.8508 52.433H49.8806L50.654 57.6981H49.0774L49.8508 52.433ZM53.5725 61H55.2085V50.5887H53.5725V61ZM58.6655 50.5887H56.3899V61H57.8177V53.6377H57.8475L59.0374 61H60.5842L61.6848 53.5336H61.7145V61H63.2614V50.5887H60.9857L59.8851 57.9807H59.8554L58.6655 50.5887Z" fill="black"/>
<path d="M71.1 61.1539V62.2879H76V61.5179H74.159V61.1539C74.159 60.3839 73.732 60.0059 72.948 60.0059H72.311C71.527 60.0059 71.1 60.3839 71.1 61.1539ZM71.8 61.1539C71.8 60.9089 71.912 60.7759 72.262 60.7759H72.997C73.347 60.7759 73.459 60.9089 73.459 61.1539V61.5179H71.8V61.1539ZM72.227 58.9422C71.877 58.9422 71.744 58.7882 71.744 58.5432C71.744 58.2982 71.877 58.1442 72.227 58.1442H74.873C75.223 58.1442 75.356 58.2982 75.356 58.5432C75.356 58.7882 75.223 58.9422 74.873 58.9422H72.227ZM74.824 59.7122C75.608 59.7122 76.056 59.2992 76.056 58.5432C76.056 57.7872 75.608 57.3742 74.824 57.3742H72.276C71.492 57.3742 71.044 57.7872 71.044 58.5432C71.044 59.2992 71.492 59.7122 72.276 59.7122H74.824ZM72.227 56.1668C71.877 56.1668 71.744 56.0128 71.744 55.7678C71.744 55.5228 71.877 55.3688 72.227 55.3688H74.873C75.223 55.3688 75.356 55.5228 75.356 55.7678C75.356 56.0128 75.223 56.1668 74.873 56.1668H72.227ZM74.824 56.9368C75.608 56.9368 76.056 56.5238 76.056 55.7678C76.056 55.0118 75.608 54.5988 74.824 54.5988H72.276C71.492 54.5988 71.044 55.0118 71.044 55.7678C71.044 56.5238 71.492 56.9368 72.276 56.9368H74.824ZM76 54.0984V52.0614H75.3V53.3284H71.1V54.0984H76ZM71.1 49.5054V50.6394H76V49.8694H74.159V49.5054C74.159 48.7354 73.732 48.3574 72.948 48.3574H72.311C71.527 48.3574 71.1 48.7354 71.1 49.5054ZM71.8 49.5054C71.8 49.2604 71.912 49.1274 72.262 49.1274H72.997C73.347 49.1274 73.459 49.2604 73.459 49.5054V49.8694H71.8V49.5054ZM71.1 46.3816V47.5086L76 48.2926V47.5856L75.111 47.4526V46.5076L76 46.3746V45.5976L71.1 46.3816ZM71.968 46.9906V46.9766L74.446 46.6126V47.3546L71.968 46.9906ZM76 42.845C75.818 42.922 75.643 42.929 75.405 42.929H74.649C74.138 42.929 73.774 43.055 73.613 43.44H73.599C73.438 43.097 73.116 42.936 72.612 42.936H72.227C71.471 42.936 71.1 43.279 71.1 44.077V45.239H76V44.469H74.005V44.203C74.005 43.853 74.173 43.699 74.628 43.699H75.398C75.797 43.699 75.874 43.671 76 43.629V42.845ZM71.8 44.098C71.8 43.825 71.954 43.706 72.304 43.706H72.787C73.179 43.706 73.305 43.881 73.305 44.168V44.469H71.8V44.098ZM71.8 42.6466V41.8416H76V41.0716H71.8V40.2666H71.1V42.6466H71.8ZM76 39.2065V38.4365H74.376L71.1 37.4635V38.1985L73.333 38.7795V38.7935L71.1 39.3745V40.1795L74.376 39.2065H76Z" fill="black"/>
<path d="M28.9 38.8461V37.7121H24V38.4821H25.841V38.8461C25.841 39.6161 26.268 39.9941 27.052 39.9941H27.689C28.473 39.9941 28.9 39.6161 28.9 38.8461ZM28.2 38.8461C28.2 39.0911 28.088 39.2241 27.738 39.2241H27.003C26.653 39.2241 26.541 39.0911 26.541 38.8461V38.4821H28.2V38.8461ZM27.773 41.0578C28.123 41.0578 28.256 41.2118 28.256 41.4568C28.256 41.7018 28.123 41.8558 27.773 41.8558H25.127C24.777 41.8558 24.644 41.7018 24.644 41.4568C24.644 41.2118 24.777 41.0578 25.127 41.0578H27.773ZM25.176 40.2878C24.392 40.2878 23.944 40.7008 23.944 41.4568C23.944 42.2128 24.392 42.6258 25.176 42.6258H27.724C28.508 42.6258 28.956 42.2128 28.956 41.4568C28.956 40.7008 28.508 40.2878 27.724 40.2878H25.176ZM27.773 43.8332C28.123 43.8332 28.256 43.9872 28.256 44.2322C28.256 44.4772 28.123 44.6312 27.773 44.6312H25.127C24.777 44.6312 24.644 44.4772 24.644 44.2322C24.644 43.9872 24.777 43.8332 25.127 43.8332H27.773ZM25.176 43.0632C24.392 43.0632 23.944 43.4762 23.944 44.2322C23.944 44.9882 24.392 45.4012 25.176 45.4012H27.724C28.508 45.4012 28.956 44.9882 28.956 44.2322C28.956 43.4762 28.508 43.0632 27.724 43.0632H25.176ZM24 45.9016V47.9386H24.7V46.6716H28.9V45.9016H24ZM28.9 50.4946V49.3606H24V50.1306H25.841V50.4946C25.841 51.2646 26.268 51.6426 27.052 51.6426H27.689C28.473 51.6426 28.9 51.2646 28.9 50.4946ZM28.2 50.4946C28.2 50.7396 28.088 50.8726 27.738 50.8726H27.003C26.653 50.8726 26.541 50.7396 26.541 50.4946V50.1306H28.2V50.4946ZM28.9 53.6184V52.4914L24 51.7074V52.4144L24.889 52.5474V53.4924L24 53.6254V54.4024L28.9 53.6184ZM28.032 53.0094V53.0234L25.554 53.3874V52.6454L28.032 53.0094ZM24 57.155C24.182 57.078 24.357 57.071 24.595 57.071H25.351C25.862 57.071 26.226 56.945 26.387 56.56H26.401C26.562 56.903 26.884 57.064 27.388 57.064H27.773C28.529 57.064 28.9 56.721 28.9 55.923V54.761H24V55.531H25.995V55.797C25.995 56.147 25.827 56.301 25.372 56.301H24.602C24.203 56.301 24.126 56.329 24 56.371V57.155ZM28.2 55.902C28.2 56.175 28.046 56.294 27.696 56.294H27.213C26.821 56.294 26.695 56.119 26.695 55.832V55.531H28.2V55.902ZM28.2 57.3534V58.1584H24V58.9284H28.2V59.7334H28.9V57.3534H28.2ZM24 60.7935V61.5635H25.624L28.9 62.5365V61.8015L26.667 61.2205V61.2065L28.9 60.6255V59.8205L25.624 60.7935H24Z" fill="black"/>
<rect x="21.4648" y="34.4648" width="57.0704" height="31.0704" rx="4.1831" stroke="black" stroke-width="0.929578"/>
<rect x="68" y="34" width="1" height="32" fill="black"/>
<rect x="31" y="34" width="1" height="32" fill="black"/>
</svg>
