<svg width="78" height="78" viewBox="0 0 78 78" fill="none" xmlns="http://www.w3.org/2000/svg">
<path d="M39.0012 77.8002C60.4298 77.8002 77.8012 60.4288 77.8012 39.0002C77.8012 17.5715 60.4298 0.200195 39.0012 0.200195C17.5725 0.200195 0.201172 17.5715 0.201172 39.0002C0.201172 60.4288 17.5725 77.8002 39.0012 77.8002Z" fill="url(#paint0_linear_1160_23209)"/>
<path d="M55.9794 54.4584L42.8561 22.7425C42.1145 21.1036 41.0182 20.3003 39.5672 20.3003H38.4065C36.9555 20.3003 35.8592 21.1036 35.1176 22.7425L29.4108 36.5603H25.0897C24.4675 36.5627 23.8714 36.8104 23.4308 37.2495C22.9901 37.6887 22.7404 38.284 22.7359 38.9061V38.9382C22.7404 39.5603 22.9901 40.1556 23.4308 40.5947C23.8714 41.0339 24.4675 41.2816 25.0897 41.284H27.4108L21.962 54.4584C21.8589 54.7474 21.8045 55.0515 21.8008 55.3584C21.8008 56.0975 22.0265 56.6759 22.4457 57.1258C22.8649 57.5757 23.4452 57.8003 24.1869 57.8003C24.6738 57.7937 25.1468 57.6365 25.5408 57.3503C25.96 57.0611 26.2502 56.6434 26.4759 56.1614L32.4733 41.2835H36.6328C37.2549 41.2811 37.851 41.0334 38.2917 40.5942C38.7324 40.1551 38.9821 39.5598 38.9866 38.9377V38.8734C38.9821 38.2513 38.7324 37.656 38.2917 37.2168C37.851 36.7777 37.2549 36.53 36.6328 36.5276H34.4082L38.9868 25.1203L51.4653 56.1615C51.691 56.6435 51.9812 57.0615 52.4004 57.3504C52.7945 57.6367 53.2676 57.7939 53.7547 57.8004C54.4963 57.8004 55.0767 57.5755 55.4959 57.1256C55.9151 56.6756 56.1408 56.0973 56.1408 55.3582C56.1529 55.0501 56.0978 54.7431 55.9794 54.4584Z" fill="white"/>
<defs>
<linearGradient id="paint0_linear_1160_23209" x1="70.5844" y1="17.8154" x2="12.85" y2="66.393" gradientUnits="userSpaceOnUse">
<stop stop-color="#B6509E"/>
<stop offset="1" stop-color="#2EBAC6"/>
</linearGradient>
</defs>
</svg>
