<?xml version="1.0" encoding="UTF-8"?>
<svg width="180px" height="180px" viewBox="0 0 180 180" version="1.1" xmlns="http://www.w3.org/2000/svg" xmlns:xlink="http://www.w3.org/1999/xlink">
    <g stroke="none" stroke-width="1" fill="none" fill-rule="evenodd">
        <g id="BSC">
            <circle fill="#F0B90B" cx="90" cy="90" r="90"></circle>
            <path d="M114.905724,100.496 L129.220724,114.795 L129.213724,114.803 L90.3057238,153.711 L51.4097238,114.816 L51.3897238,114.796 L65.7177238,100.508 L90.3057238,125.095 L114.905724,100.496 Z M90.3057238,75.88 L104.823724,90.398 L104.823724,90.413 L90.3057238,104.931 L75.8007238,90.426 L75.7807238,90.405 L78.3437238,87.842 L79.5757238,86.609 L90.3057238,75.88 Z M139.306084,76.1032478 L153.612838,90.4100021 L139.305377,104.717463 L124.998622,90.4107092 L139.306084,76.1032478 Z M41.3074614,76.0965072 L55.6142157,90.4032615 L41.3067543,104.710723 L27,90.4039686 L41.3074614,76.0965072 Z M90.3057238,27.1 L129.213724,66.009 L114.906724,80.316 L90.3057238,55.716 L65.7177238,80.303 L51.4107238,65.996 L90.3057238,27.1 Z" fill="#FFFFFF" fill-rule="nonzero"></path>
        </g>
    </g>
</svg>