<svg width="914" height="914" viewBox="0 0 914 914" fill="none" xmlns="http://www.w3.org/2000/svg">
<circle cx="457" cy="457" r="457" fill="#1E1E1E"/>
<path fill-rule="evenodd" clip-rule="evenodd" d="M490.804 74.4673L610.383 143.506C632.247 156.129 645.716 179.458 645.716 204.704V342.782C645.716 344.41 645.659 346.03 645.549 347.64C647.776 348.631 649.964 349.746 652.104 350.981L771.683 420.02C793.547 432.643 807.015 455.972 807.015 481.218V619.296C807.015 644.542 793.547 667.871 771.683 680.494L652.104 749.533C630.24 762.156 603.303 762.156 581.439 749.533L461.859 680.494C460.193 679.531 458.574 678.507 457.007 677.424C455.441 678.507 453.823 679.531 452.156 680.494L332.576 749.533C310.713 762.156 283.775 762.156 261.912 749.533L142.332 680.494C120.469 667.871 107 644.542 107 619.296V481.218C107 455.972 120.469 432.643 142.332 420.02L261.912 350.981C263.095 350.298 264.293 349.652 265.504 349.043C265.321 346.974 265.227 344.885 265.227 342.782V204.704C265.227 179.458 278.696 156.129 300.56 143.506L420.139 74.4673C442.003 61.8442 468.94 61.8442 490.804 74.4673ZM296.682 401.571L168.197 475.752V624.762L297.244 699.267L426.291 624.762L426.292 476.181C424.203 475.234 422.15 474.18 420.139 473.019L300.56 403.98C299.236 403.215 297.943 402.412 296.682 401.571ZM616.771 401.247L487.724 475.752V624.762L616.771 699.267L745.818 624.762V475.752L616.771 401.247ZM455.471 124.733L326.425 199.238L326.425 347.82C328.513 348.767 330.566 349.821 332.576 350.981L452.156 420.02C453.479 420.785 454.772 421.588 456.033 422.429L584.518 348.248V199.238L455.471 124.733Z" fill="url(#paint0_linear_2080_41)"/>
<defs>
<linearGradient id="paint0_linear_2080_41" x1="731.912" y1="-129.555" x2="180.615" y2="700.609" gradientUnits="userSpaceOnUse">
<stop stop-color="#FF00FF"/>
<stop offset="0.538648" stop-color="#FF3333"/>
<stop offset="1" stop-color="#FFDD00"/>
</linearGradient>
</defs>
</svg>
