<?xml version="1.0" encoding="UTF-8"?>
<svg width="445px" height="445px" viewBox="0 0 445 445" version="1.1" xmlns="http://www.w3.org/2000/svg" xmlns:xlink="http://www.w3.org/1999/xlink">
    <title>DAI</title>
    <defs>
        <linearGradient x1="50%" y1="-14.1666667%" x2="50%" y2="110.5%" id="linearGradient-1">
            <stop stop-color="#F9A606" offset="0%"></stop>
            <stop stop-color="#FBCC5F" offset="100%"></stop>
        </linearGradient>
    </defs>
    <g id="Page-1" stroke="none" stroke-width="1" fill="none" fill-rule="evenodd">
        <g id="DAI" fill-rule="nonzero">
            <path d="M222.22,0 C344.96,0 444.44,99.5 444.44,222.22 C444.44,344.96 344.96,444.44 222.22,444.44 C99.5,444.44 0,344.95 0,222.22 C0,99.5 99.5,0 222.22,0 Z" id="Path" fill="url(#linearGradient-1)"></path>
            <path d="M230.41,237.91 L314.85,237.91 C316.65,237.91 317.5,237.91 317.63,235.55 C318.32,226.96 318.32,218.32 317.63,209.72 C317.63,208.05 316.8,207.36 314.99,207.36 L146.94,207.36 C144.86,207.36 144.3,208.05 144.3,210 L144.3,234.72 C144.3,237.91 144.3,237.91 147.63,237.91 L230.41,237.91 L230.41,237.91 Z M308.2,178.47 C308.44,177.84 308.44,177.15 308.2,176.53 C306.79,173.46 305.12,170.53 303.18,167.78 C300.26,163.08 296.82,158.75 292.9,154.86 C291.05,152.51 288.91,150.4 286.51,148.61 C274.49,138.38 260.2,131.14 244.84,127.5 C237.09,125.76 229.17,124.93 221.23,125 L146.65,125 C144.57,125 144.29,125.83 144.29,127.64 L144.29,176.94 C144.29,179.02 144.29,179.58 146.93,179.58 L307.2,179.58 C307.2,179.58 308.59,179.3 308.87,178.47 L308.19,178.47 L308.2,178.47 Z M308.2,266.8 C305.84,266.54 303.46,266.54 301.1,266.8 L147.08,266.8 C145,266.8 144.3,266.8 144.3,269.58 L144.3,317.78 C144.3,320 144.3,320.56 147.08,320.56 L218.19,320.56 C221.59,320.82 224.99,320.58 228.32,319.87 C238.64,319.13 248.79,316.89 258.47,313.2 C261.99,311.98 265.39,310.39 268.6,308.48 L269.57,308.48 C286.24,299.81 299.78,286.19 308.32,269.47 C308.32,269.47 309.29,267.37 308.2,266.82 L308.2,266.8 Z M116.39,345.55 L116.39,344.72 L116.39,312.36 L116.39,301.39 L116.39,268.75 C116.39,266.94 116.39,266.67 114.17,266.67 L84.03,266.67 C82.36,266.67 81.67,266.67 81.67,264.45 L81.67,238.06 L113.89,238.06 C115.69,238.06 116.39,238.06 116.39,235.7 L116.39,209.59 C116.39,207.92 116.39,207.51 114.17,207.51 L84.03,207.51 C82.36,207.51 81.67,207.51 81.67,205.29 L81.67,180.85 C81.67,179.32 81.67,178.91 83.89,178.91 L113.75,178.91 C115.83,178.91 116.39,178.91 116.39,176.27 L116.39,101.41 C116.39,99.19 116.39,98.63 119.17,98.63 L223.33,98.63 C230.89,98.93 238.4,99.76 245.83,101.13 C261.14,103.96 275.85,109.43 289.3,117.24 C298.22,122.49 306.43,128.83 313.74,136.13 C319.24,141.84 324.2,148.02 328.6,154.6 C332.97,161.27 336.6,168.4 339.45,175.85 C339.8,177.79 341.66,179.1 343.6,178.77 L368.46,178.77 C371.65,178.77 371.65,178.77 371.79,181.83 L371.79,204.61 C371.79,206.83 370.96,207.39 368.73,207.39 L349.56,207.39 C347.62,207.39 347.06,207.39 347.2,209.89 C347.96,218.35 347.96,226.84 347.2,235.3 C347.2,237.66 347.2,237.94 349.85,237.94 L371.78,237.94 C372.75,239.19 371.78,240.44 371.78,241.7 C371.92,243.31 371.92,244.94 371.78,246.55 L371.78,263.36 C371.78,265.72 371.09,266.42 369,266.42 L342.75,266.42 C340.92,266.07 339.14,267.24 338.72,269.06 C332.47,285.31 322.47,299.88 309.55,311.56 C304.83,315.81 299.87,319.81 294.69,323.5 C289.13,326.7 283.72,330.03 278.02,332.67 C267.53,337.39 256.53,340.87 245.24,343.08 C234.52,345 223.65,345.87 212.74,345.72 L116.35,345.72 L116.35,345.58 L116.39,345.55 Z" id="Shape" fill="#FEFEFD"></path>
        </g>
    </g>
</svg>