<?xml version="1.0" encoding="UTF-8"?>
<svg width="149px" height="149px" viewBox="0 0 149 149" version="1.1" xmlns="http://www.w3.org/2000/svg" xmlns:xlink="http://www.w3.org/1999/xlink">
    <title>DaiX</title>
    <defs>
        <linearGradient x1="50%" y1="0%" x2="50%" y2="100%" id="linearGradient-1">
            <stop stop-color="#FACC16" offset="0%"></stop>
            <stop stop-color="#FEF9C2" offset="100%"></stop>
        </linearGradient>
    </defs>
    <g id="Page-1" stroke="none" stroke-width="1" fill="none" fill-rule="evenodd">
        <path d="M74.5,0 C115.645214,0 149,33.3547861 149,74.5 C149,115.645214 115.645214,149 74.5,149 C33.3547861,149 0,115.645214 0,74.5 C0,33.3547861 33.3547861,0 74.5,0 Z M74.5,12 C39.9822031,12 12,39.9822031 12,74.5 C12,109.017797 39.9822031,137 74.5,137 C109.017797,137 137,109.017797 137,74.5 C137,39.9822031 109.017797,12 74.5,12 Z M81.5462318,50 C81.8345944,50 82.1089204,50.1244804 82.2988085,50.3414954 L95.2474233,65.1399123 C95.2766577,65.1733231 95.3080846,65.20475 95.3414954,65.2339844 C95.757132,65.5976665 96.3888946,65.555549 96.7525767,65.1399123 L109.701192,50.3414954 C109.89108,50.1244804 110.165406,50 110.453768,50 L121,50 C121.552285,50 122,50.4477153 122,51 L122,52.6279535 C122,52.8679486 121.913689,53.0999395 121.756823,53.2815734 L103.56449,74.3463801 C103.240254,74.7218113 103.240254,75.2781887 103.56449,75.6536199 L121.756823,96.7184266 C121.913689,96.9000605 122,97.1320514 122,97.3720465 L122,98 C122,98.5522847 121.552285,99 121,99 L110.453768,99 C110.165406,99 109.89108,98.8755196 109.701192,98.6585046 L96.7525767,83.8600877 C96.7233423,83.8266769 96.6919154,83.79525 96.6585046,83.7660156 C96.242868,83.4023335 95.6111054,83.444451 95.2474233,83.8600877 L82.2988085,98.6585046 C82.1089204,98.8755196 81.8345944,99 81.5462318,99 L70.2037682,99 C69.9615451,99 69.7275551,98.9120818 69.5452636,98.7525767 C69.129627,98.3888946 69.0875095,97.757132 69.4511915,97.3414954 L88.4354319,75.6452206 C88.7602868,75.273958 88.7658609,74.721263 88.4485601,74.3435239 L69.3802814,51.6431921 C69.2289484,51.4630339 69.1459862,51.2352842 69.1459862,51 C69.1459862,50.4477153 69.5937015,50 70.1459862,50 L81.5462318,50 Z M66,47 L66,87 C66,93.627417 60.627417,99 54,99 L37,99 C30.372583,99 25,93.627417 25,87 L25,74.0350959 C25,67.4076789 30.372583,62.0350959 37,62.0350959 L37.0350446,62.0351471 L54.053,62.084 L54.2204337,71.8428753 L37.9754762,71.9756758 C36.3282461,71.9891417 35,73.3282905 35,74.9755756 L35,86.0371988 C35,87.6794544 36.3204428,89.0164758 37.9625706,89.0369653 L53.0916028,89.225737 C54.7483281,89.2464087 56.1081271,87.9201252 56.1287988,86.2633999 C56.1289544,86.2509241 56.1290323,86.2384473 56.1290323,86.2259705 L56.1290323,71.8272727 L56.031,62.09 L56.1290323,62.0909091 L56.1290323,47 L66,47 Z" id="DaiX" fill="url(#linearGradient-1)"></path>
    </g>
</svg>