<svg width="100" height="100" viewBox="0 0 100 100" fill="none" xmlns="http://www.w3.org/2000/svg">
<circle cx="50" cy="50" r="42" fill="black"/>
<path fill-rule="evenodd" clip-rule="evenodd" d="M50 100C77.6142 100 100 77.6142 100 50C100 22.3858 77.6142 0 50 0C22.3858 0 0 22.3858 0 50C0 77.6142 22.3858 100 50 100ZM50 92C73.196 92 92 73.196 92 50C92 26.804 73.196 8 50 8C26.804 8 8 26.804 8 50C8 73.196 26.804 92 50 92Z" fill="#8F4CFE"/>
<rect x="62" y="26" width="12" height="36" fill="#6DFE85"/>
<rect x="26" y="38" width="12" height="36" fill="#6DFE85"/>
<rect x="44" y="38" width="12" height="24" fill="#8F4CFE"/>
</svg>
