<?xml version="1.0" encoding="UTF-8"?>
<svg width="896px" height="895px" viewBox="0 0 896 895" version="1.1" xmlns="http://www.w3.org/2000/svg" xmlns:xlink="http://www.w3.org/1999/xlink">
    <title>DRS</title>
    <g id="Page-1" stroke="none" stroke-width="1" fill="none" fill-rule="evenodd">
        <g id="DRS">
            <ellipse id="Oval" fill="#F4AC34" cx="448" cy="447.5" rx="448" ry="447.5"></ellipse>
            <path d="M700,281 C757.333333,281 791.666667,311.666667 803,373 L754,373 C751.333333,343.666667 736,327.333333 708,324 C666,319 630,329 630,363 C630,396.32 678.9804,406.5904 716.704912,412.63504 L719,413 C757,419 811,435 811,500 C811,565 765,585 687,589 C609,593 552,564 537,529 C522,494 516,461 484,461 L405,461 L405,581 L321,581 C366.333333,553.666667 389.666667,507 391,441 C392.333333,375 369,323.666667 321,287 L496,287 C529.333333,287 555,299.333333 573,324 C565.4,338.666667 561.6,353 561.6,367 C561.6,381 565.4,396.333333 573,413 L571.836615,414.054446 C564.151047,420.986573 557.872176,425.968424 553,429 L552.357496,429.393857 C547.198583,432.511046 539.079417,436.379761 528,441 C558.666667,447.666667 574,465 574,493 C574,535 634,550 675,550 C716,550 760,544 760,506 C760,468 716,460 675,453 C634,446 581,426 581,373 C581,320 614,281 700,281 Z M250,287 C281,287 371,305 371,434 C371,563 287.635719,581 253,581 L130,581 L130,489 L96,489 L96,448 L130,448 L130,424 L96,424 L96,382 L130,382 L130,287 L250,287 Z M314,488 L178,488 L178,541 L240,541 C274.666667,541 299.333333,523.333333 314,488 Z M321,424 L178,424 L178,447 L321,447 L321,424 Z M491,330 L404,330 L404,420 L491,420 C545,420 545,330 491,330 Z M240,330 L178,330 L178,383 L314,383 C299.333333,347.666667 274.666667,330 240,330 Z" id="Text" fill="#FFFFFF"></path>
        </g>
    </g>
</svg>