<svg width="1024" height="1024" viewBox="0 0 1024 1024" fill="none" xmlns="http://www.w3.org/2000/svg">
<g clip-path="url(#clip0_2012_19)">
<path d="M512 0C794.77 0 1024 229.23 1024 512C1024 794.77 794.77 1024 512 1024C229.23 1024 0 794.77 0 512C0 229.23 229.23 0 512 0ZM512 87C277.279 87 87 277.279 87 512C87 746.721 277.279 937 512 937C746.721 937 937 746.721 937 512C937 277.279 746.721 87 512 87Z" fill="#627EEA"/>
<path d="M316.212 823.029L266.062 736.189C264.504 732.97 264.504 729.216 266.062 725.997L321.781 629.519C323.761 626.488 327.062 624.577 330.676 624.371H442.062C445.682 624.582 448.989 626.49 450.983 629.519L506.676 725.997C508.288 729.24 508.288 733.051 506.676 736.294L450.825 832.719C448.83 835.666 445.608 837.55 442.062 837.842H341.999C331.573 837.169 322.048 831.698 316.212 823.029ZM677.82 624.45L566.962 432.234C564.223 428.123 559.723 425.526 554.794 425.211H332.814C327.885 425.526 323.385 428.123 320.646 432.234L209.656 624.556C207.468 628.982 207.468 634.176 209.656 638.602L242.306 695L299.213 596.463C302.331 591.707 307.503 588.694 313.176 588.33H459.403C465.119 588.649 470.341 591.668 473.472 596.463L546.612 723.198C549.199 728.311 549.199 734.35 546.612 739.463L489.704 838H554.715C559.657 837.707 564.17 835.093 566.883 830.95L677.82 638.655C680.061 634.185 680.061 628.92 677.82 624.45ZM879.212 497.265L709.098 202.182C703.219 193.205 693.416 187.567 682.703 187H342.211C331.497 187.567 321.695 193.205 315.816 202.182L145.622 497.265C140.793 506.791 140.793 518.05 145.622 527.576L184.66 595.195L297.735 399.098C301.613 393.181 308.068 389.457 315.13 389.065H572.241C579.295 389.457 585.743 393.182 589.609 399.098L718.125 621.757C721.318 628.064 721.318 635.516 718.125 641.823L604.944 837.842H682.809C693.522 837.275 703.324 831.637 709.203 822.66L879.397 527.603C884.201 518.071 884.201 506.824 879.397 497.292L879.212 497.265Z" fill="url(#paint0_linear_2012_19)"/>
</g>
<defs>
<linearGradient id="paint0_linear_2012_19" x1="803.5" y1="4.50003" x2="313" y2="838" gradientUnits="userSpaceOnUse">
<stop stop-color="#FF00FF"/>
<stop offset="0.538648" stop-color="#FF3333"/>
<stop offset="1" stop-color="#FFDD00"/>
</linearGradient>
<clipPath id="clip0_2012_19">
<rect width="1024" height="1024" fill="white"/>
</clipPath>
</defs>
</svg>
