<?xml version="1.0" encoding="UTF-8"?>
<svg width="802px" height="904px" viewBox="0 0 802 904" version="1.1" xmlns="http://www.w3.org/2000/svg" xmlns:xlink="http://www.w3.org/1999/xlink">
    <title>HDRN</title>
    <g id="Page-1" stroke="none" stroke-width="1" fill="none" fill-rule="evenodd">
        <path d="M420.34,859.43 L420.34,678.43 L733.84,678.43 L420.34,859.43 Z M68.5,678.43 L382.36,678.43 L382.36,859.64 L68.5,678.43 Z M218.67,288.42 L64.21,228.35 L351.52,62.47 L218.67,288.42 L218.67,288.42 Z M579.3,289.39 L443.33,58.15 L738,228.29 L579.3,289.4 L579.3,289.39 Z M572.62,352.96 L741.65,640.45 L431.79,640.45 L572.62,352.96 Z M370.72,640.45 L55.73,640.45 L226.47,350.06 L370.7,640.45 L370.72,640.45 Z M259.51,293.91 L398.7,57.17 L537.89,293.91 L259.5,293.91 L259.51,293.91 Z M401.24,616.51 L259.88,331.89 L540.65,331.89 L401.24,616.51 Z M763.48,261 L763.48,602.6 L598.83,322.58 L763.42,259.2 C763.45,259.8 763.48,260.4 763.48,261 L763.48,261 Z M38.9,261 C38.9,260.42 38.93,259.85 38.96,259.27 L199.2,321.59 L38.9,594.21 L38.9,261 Z M5.03,666.68 C10.5,681.85 21.18,694.94 35.52,703.23 L366.61,894.38 C377.28,900.54 389.24,903.62 401.2,903.62 C413.16,903.62 425.12,900.54 435.79,894.38 L766.88,703.23 C788.22,690.91 801.47,667.95 801.47,643.31 L801.47,261.01 C801.47,248.22 797.89,235.88 791.47,225.25 C791.15,224.67 790.8,224.11 790.43,223.58 C784.56,214.46 776.56,206.68 766.89,201.1 L435.77,9.94 C424.4,3.37 411.56,0.31 398.82,0.74 C398.78,0.74 398.75,0.74 398.71,0.74 C398.1,0.74 397.5,0.78 396.9,0.84 C386.38,1.49 375.98,4.52 366.59,9.94 L35.49,201.09 C25.82,206.67 17.82,214.45 11.95,223.57 C11.57,224.12 11.21,224.69 10.88,225.29 C4.47,235.91 0.9,248.23 0.9,261.01 L0.9,643.31 C0.9,650.62 2.07,657.78 4.27,664.56 C4.47,665.28 4.71,665.99 5,666.68" id="HDRN" fill="#FFFFFF" fill-rule="nonzero"></path>
    </g>
</svg>