<svg width="61" height="54" viewBox="0 0 61 54" fill="none" xmlns="http://www.w3.org/2000/svg">
<path fill-rule="evenodd" clip-rule="evenodd" d="M13.5455 2.01544C14.2577 0.769145 15.583 0 17.0185 0H42.9842C44.4197 0 45.745 0.769144 46.4572 2.01544L59.4757 24.7978C60.1784 26.0275 60.1784 27.5371 59.4757 28.7669L46.4572 51.5492C45.745 52.7955 44.4197 53.5646 42.9842 53.5646H17.0185C15.583 53.5646 14.2577 52.7955 13.5455 51.5492L0.527027 28.7669C-0.175676 27.5371 -0.175676 26.0275 0.527027 24.7978L13.5455 2.01544ZM35.4488 31.408L42.1367 42.838H34.5594C34.0623 42.838 33.6031 42.5773 33.3554 42.1543L31.248 38.5557L35.4488 31.408ZM23.5647 12.4712C24.062 12.4712 24.5214 12.7321 24.769 13.1554L29.1188 20.5894L24.9151 27.7417L15.9724 12.4712H23.5647ZM46.5808 8.92744L26.3086 43.2775C25.8119 44.119 24.8961 44.6372 23.9051 44.6372H17.0834L37.3042 10.2897C37.8004 9.44667 38.7171 8.92744 39.7091 8.92744H46.5808Z" fill="url(#paint0_linear_3327_1026)"/>
<defs>
<linearGradient id="paint0_linear_3327_1026" x1="49.7186" y1="-2.53315e-07" x2="24.2004" y2="59.6139" gradientUnits="userSpaceOnUse">
<stop stop-color="#00FF99"/>
<stop offset="1" stop-color="#00FF55"/>
</linearGradient>
</defs>
</svg>
