<svg width="46" height="54" viewBox="0 0 46 54" fill="none" xmlns="http://www.w3.org/2000/svg">
<g clip-path="url(#clip0_3050_314)">
<path fill-rule="evenodd" clip-rule="evenodd" d="M28.905 33.9949L38.8305 51.2794H27.585C26.8472 51.2794 26.1657 50.885 25.7981 50.2453L22.6705 44.8036L28.905 33.9949ZM11.2677 5.35878C12.0058 5.35878 12.6875 5.75344 13.055 6.39348L19.5105 17.6352L13.2719 28.4508L0 5.35878H11.2677Z" fill="url(#paint0_linear_3050_314)"/>
<path fill-rule="evenodd" clip-rule="evenodd" d="M15.34 51.9439L45.426 0H35.2278C33.7555 0 32.3951 0.785179 31.6585 2.05993L1.64886 54H11.773C13.2436 54 14.6029 53.2165 15.34 51.9439Z" fill="url(#paint1_linear_3050_314)"/>
</g>
<defs>
<linearGradient id="paint0_linear_3050_314" x1="5.53254" y1="5.35878" x2="33.0306" y2="52.9501" gradientUnits="userSpaceOnUse">
<stop offset="0.000863882" stop-color="#FF0000"/>
<stop offset="1" stop-color="#FF0033"/>
</linearGradient>
<linearGradient id="paint1_linear_3050_314" x1="37.9229" y1="-2.55374e-07" x2="6.76338" y2="52.6802" gradientUnits="userSpaceOnUse">
<stop stop-color="#00FF99"/>
<stop offset="1" stop-color="#00FF55"/>
</linearGradient>
<clipPath id="clip0_3050_314">
<rect width="45.4259" height="54" fill="white"/>
</clipPath>
</defs>
</svg>
