<?xml version="1.0" encoding="UTF-8"?>
<svg width="493px" height="573px" viewBox="0 0 493 573" version="1.1" xmlns="http://www.w3.org/2000/svg" xmlns:xlink="http://www.w3.org/1999/xlink">
    <title>pTGC</title>
    <defs>
        <linearGradient x1="11.9797937%" y1="32.6389753%" x2="83.7547913%" y2="62.6921555%" id="linearGradient-1">
            <stop stop-color="#F8F192" offset="0%"></stop>
            <stop stop-color="#E4D579" offset="6.668933%"></stop>
            <stop stop-color="#B18E38" offset="24.63%"></stop>
            <stop stop-color="#9D721F" offset="33%"></stop>
            <stop stop-color="#F8F192" offset="75%"></stop>
            <stop stop-color="#9D721F" offset="100%"></stop>
        </linearGradient>
    </defs>
    <g id="Page-1" stroke="none" stroke-width="1" fill="none" fill-rule="evenodd">
        <g id="PTGC_Coin_SVG" transform="translate(0.200000, 0.200000)" fill-rule="nonzero">
            <g id="pTGC">
                <path d="M246.1,566 C200.7,566 139.8,524 87.3,456.4 C61.8,423.5 40.4,387 25.3,350.8 C8.5,310.3 0,271.6 0,235.8 C0,156.3 24.4,95.4 72.4,54.6 C114.5,18.8 174.6,0 246.1,0 C317.6,0 377.7,18.9 419.7,54.6 C467.7,95.4 492.1,156.3 492.1,235.8 C492.1,271.7 483.6,310.4 466.8,350.8 C451.8,387 430.3,423.6 404.8,456.4 C352.4,524 291.5,566 246.1,566 Z M246.1,17.9 C161.4,17.9 19.3,46.2 19.3,235.7 C19.3,299.8 50.6,378.3 102.9,445.8 C151.1,507.9 207.3,548 246.1,548 C284.9,548 341.1,507.9 389.3,445.8 C441.7,378.3 472.9,299.8 472.9,235.7 C472.9,46.2 330.8,17.9 246.1,17.9 Z M225,392.1 C228.7,391.8 231.4,388.2 230.6,384.8 C226.3,367.1 211,317.3 169.2,289 C127.4,260.7 72,262.8 52.7,264.6 C49,264.9 46.3,268.5 47.1,271.9 C51.4,289.6 66.7,339.4 108.5,367.7 C150.3,396 205.7,393.9 225,392.1 Z M383.6,367.8 C425.4,339.6 440.7,289.7 445,272 C445.8,268.6 443.1,265.1 439.4,264.7 C420.1,262.9 364.7,260.9 322.9,289.1 C281.1,317.3 265.8,367.2 261.5,384.9 C260.7,388.3 263.4,391.8 267.1,392.2 C286.3,393.9 341.8,396 383.6,367.8 Z" id="Shape" fill="#FFFCC9"></path>
                <path d="M246.1,572.7 C200.7,572.7 139.8,530.7 87.3,463.1 C61.8,430.2 40.4,393.7 25.3,357.5 C8.5,317 0,278.3 0,242.5 C0,163 24.4,102.1 72.4,61.3 C114.5,25.6 174.5,6.7 246,6.7 C317.5,6.7 377.6,25.6 419.6,61.3 C467.6,102.1 492,163 492,242.5 C492,278.4 483.5,317.1 466.7,357.5 C451.7,393.7 430.2,430.3 404.7,463.1 C352.4,530.7 291.5,572.7 246.1,572.7 Z M246.1,24.7 C161.4,24.7 19.3,53 19.3,242.5 C19.3,306.6 50.6,385.1 102.9,452.6 C151.1,514.7 207.3,554.8 246.1,554.8 C284.9,554.8 341.1,514.7 389.3,452.6 C441.7,385.1 472.9,306.6 472.9,242.5 C472.9,53 330.8,24.7 246.1,24.7 Z M225,398.9 C228.7,398.6 231.4,395 230.6,391.6 C226.3,373.9 211,324.1 169.2,295.8 C127.4,267.6 72,269.6 52.7,271.4 C49,271.7 46.3,275.3 47.1,278.7 C51.4,296.4 66.7,346.2 108.5,374.5 C150.3,402.8 205.7,400.6 225,398.9 Z M383.6,374.5 C425.4,346.3 440.7,296.4 445,278.7 C445.8,275.3 443.1,271.8 439.4,271.4 C420.1,269.6 364.7,267.6 322.9,295.8 C281.1,324 265.8,373.9 261.5,391.6 C260.7,395 263.4,398.5 267.1,398.9 C286.3,400.6 341.8,402.7 383.6,374.5 Z" id="Shape" fill="url(#linearGradient-1)"></path>
            </g>
        </g>
    </g>
</svg>