<?xml version="1.0" encoding="UTF-8"?>
<svg width="562px" height="473px" viewBox="0 0 562 473" version="1.1" xmlns="http://www.w3.org/2000/svg" xmlns:xlink="http://www.w3.org/1999/xlink">
    <title>PUMP</title>
    <g id="Page-1" stroke="none" stroke-width="1" fill="none" fill-rule="evenodd">
        <path d="M6,9 L63,9 L63,44 L6,44 C2.6862915,44 0,41.3137085 0,38 L0,15 C0,11.6862915 2.6862915,9 6,9 Z M475,184.5 L475,465 C475,469.418278 471.418278,473 467,473 L415,473 C410.581722,473 407,469.418278 407,465 L407,209.75 L408.784901,209.417087 C422.634244,206.804592 433.37261,204.082229 441,201.25 L441.849537,200.929468 C449.751444,197.902199 460.801599,192.425709 475,184.5 Z M394,211.25 L394,465 C394,469.418278 390.418278,473 386,473 L334,473 C329.581722,473 326,469.418278 326,465 L326,285 C332.333333,262.166667 340.583333,245.333333 350.75,234.5 C360.916667,223.666667 375.333333,215.916667 394,211.25 Z M309,314.5 L309,465 C309,469.418278 305.418278,473 301,473 L249,473 C244.581722,473 241,469.418278 241,465 L241,372.75 L243.130109,371.715711 C260.629313,363.162556 271.835943,356.257318 276.75,351 C287.380479,339.62695 298.130479,327.460284 309,314.5 Z M562,97 L562,465 C562,469.418278 558.418278,473 554,473 L502,473 C497.581722,473 494,469.418278 494,465 L494,169.75 L497.557596,165.563469 C504.042307,157.897758 508.606442,152.293268 511.25,148.75 L512.966305,146.43927 C524.017734,131.49544 531.205003,120.554574 538.5,112.75 L539.344471,111.853219 C549.546268,101.101305 557.098111,96.1502317 562,97 Z M223,378.5 L223,465 C223,469.418278 219.418278,473 215,473 L163,473 C158.581722,473 155,469.418278 155,465 L155,404.25 C166.833333,390.083333 177.666667,382.083333 187.5,380.25 C197.333333,378.416667 209.166667,377.833333 223,378.5 Z M140,158 L140,471 L102,471 L102,158 L140,158 Z M562,39.75 L562,69.75 L560.482925,70.4737506 C542.953647,78.9092518 531.371946,87.0558089 525.737821,94.9134221 L525.5,95.25 C494,140.5 469.111772,162.182204 453.75,171.5 C423.25,190 371.5,184.5 340.25,211.25 C320.743021,227.947974 314.651108,256.582131 302,283 C294.38415,298.903313 281.241468,313.34937 270.25,325.75 C245.721974,353.422645 227.698467,355.780405 209.398256,355.820471 L207.66351,355.818057 L204.711208,355.794469 L203.39337,355.780723 C201.853975,355.7647 200.3075,355.75 198.75,355.75 C183.916667,355.75 169.333333,363.25 155,378.25 L155,338.25 C179.333333,329.083333 202,324.5 223,324.5 C237.384324,324.5 255.570062,303.479914 270.25,277.25 C287.717423,246.039446 288.197028,217.355564 317.5,191.5 C360,154 407,162 439,146.75 C452.338066,140.393578 476.094588,100.86909 512.75,66.75 C521.978337,58.160205 538.395004,49.160205 562,39.75 Z M152,114 L152,149 L88,149 L88,114 L152,114 Z M168.5,0.5 L168.5,52.5 L133.25,78.75 L133.25,103 L110.75,103 L110.75,78.75 L75.75,51.75 L75.75,0.5 L168.5,0.5 Z M239,11 C242.313708,11 245,13.6862915 245,17 L245,40 C245,43.3137085 242.313708,46 239,46 L182,46 L182,11 L239,11 Z" id="PUMP" fill="#37BE19"></path>
    </g>
</svg>