<?xml version="1.0" encoding="UTF-8"?>
<svg width="851px" height="425px" viewBox="0 0 851 425" version="1.1" xmlns="http://www.w3.org/2000/svg" xmlns:xlink="http://www.w3.org/1999/xlink">
    <title>UFO</title>
    <defs>
        <linearGradient x1="0.00380767093%" y1="49.9816958%" x2="99.9987771%" y2="49.9816958%" id="linearGradient-1">
            <stop stop-color="#35AA0C" offset="0%"></stop>
            <stop stop-color="#3DB10D" offset="5.93166%"></stop>
            <stop stop-color="#54C411" offset="15.31%"></stop>
            <stop stop-color="#79E218" offset="26.9%"></stop>
            <stop stop-color="#97FB1D" offset="35%"></stop>
            <stop stop-color="#A0FB2E" offset="37.53%"></stop>
            <stop stop-color="#B7FD59" offset="42.52%"></stop>
            <stop stop-color="#DCFF9E" offset="49.43%"></stop>
            <stop stop-color="#DFFFA4" offset="50%"></stop>
            <stop stop-color="#D1FE8A" offset="53.45%"></stop>
            <stop stop-color="#ADFC46" offset="60.79%"></stop>
            <stop stop-color="#97FB1D" offset="65%"></stop>
            <stop stop-color="#94F91D" offset="75.78%"></stop>
            <stop stop-color="#8CF21B" offset="82.26%"></stop>
            <stop stop-color="#7EE619" offset="87.61%"></stop>
            <stop stop-color="#6AD515" offset="92.34%"></stop>
            <stop stop-color="#50C011" offset="96.62%"></stop>
            <stop stop-color="#35AA0C" offset="100%"></stop>
        </linearGradient>
        <linearGradient x1="0.00700412007%" y1="49.9997795%" x2="100.004779%" y2="49.9997795%" id="linearGradient-2">
            <stop stop-color="#35AA0C" offset="0%"></stop>
            <stop stop-color="#3DB10D" offset="5.93166%"></stop>
            <stop stop-color="#54C411" offset="15.31%"></stop>
            <stop stop-color="#79E218" offset="26.9%"></stop>
            <stop stop-color="#97FB1D" offset="35%"></stop>
            <stop stop-color="#A0FB2E" offset="37.53%"></stop>
            <stop stop-color="#B7FD59" offset="42.52%"></stop>
            <stop stop-color="#DCFF9E" offset="49.43%"></stop>
            <stop stop-color="#DFFFA4" offset="50%"></stop>
            <stop stop-color="#D1FE8A" offset="53.45%"></stop>
            <stop stop-color="#ADFC46" offset="60.79%"></stop>
            <stop stop-color="#97FB1D" offset="65%"></stop>
            <stop stop-color="#94F91D" offset="75.78%"></stop>
            <stop stop-color="#8CF21B" offset="82.26%"></stop>
            <stop stop-color="#7EE619" offset="87.61%"></stop>
            <stop stop-color="#6AD515" offset="92.34%"></stop>
            <stop stop-color="#50C011" offset="96.62%"></stop>
            <stop stop-color="#35AA0C" offset="100%"></stop>
        </linearGradient>
        <linearGradient x1="-0.00477928193%" y1="50.0236184%" x2="99.9930077%" y2="50.0236184%" id="linearGradient-3">
            <stop stop-color="#35AA0C" offset="0%"></stop>
            <stop stop-color="#3DB10D" offset="5.93166%"></stop>
            <stop stop-color="#54C411" offset="15.31%"></stop>
            <stop stop-color="#79E218" offset="26.9%"></stop>
            <stop stop-color="#97FB1D" offset="35%"></stop>
            <stop stop-color="#A0FB2E" offset="37.53%"></stop>
            <stop stop-color="#B7FD59" offset="42.52%"></stop>
            <stop stop-color="#DCFF9E" offset="49.43%"></stop>
            <stop stop-color="#DFFFA4" offset="50%"></stop>
            <stop stop-color="#D1FE8A" offset="53.45%"></stop>
            <stop stop-color="#ADFC46" offset="60.79%"></stop>
            <stop stop-color="#97FB1D" offset="65%"></stop>
            <stop stop-color="#94F91D" offset="75.78%"></stop>
            <stop stop-color="#8CF21B" offset="82.26%"></stop>
            <stop stop-color="#7EE619" offset="87.61%"></stop>
            <stop stop-color="#6AD515" offset="92.34%"></stop>
            <stop stop-color="#50C011" offset="96.62%"></stop>
            <stop stop-color="#35AA0C" offset="100%"></stop>
        </linearGradient>
        <radialGradient cx="49.5541323%" cy="65.8748214%" fx="49.5541323%" fy="65.8748214%" r="228.292817%" gradientTransform="translate(0.495541,0.658748),scale(0.290087,1.000000),translate(-0.495541,-0.658748)" id="radialGradient-4">
            <stop stop-color="#38414C" offset="0%"></stop>
            <stop stop-color="#2A2F39" offset="28.21%"></stop>
            <stop stop-color="#191821" offset="72.66%"></stop>
            <stop stop-color="#121018" offset="100%"></stop>
        </radialGradient>
        <radialGradient cx="50.40475%" cy="4.22530478%" fx="50.40475%" fy="4.22530478%" r="415.843071%" gradientTransform="translate(0.504048,0.042253),scale(0.230000,1.000000),translate(-0.504048,-0.042253)" id="radialGradient-5">
            <stop stop-color="#35AA0C" offset="20%"></stop>
            <stop stop-color="#40B30E" offset="23%"></stop>
            <stop stop-color="#7EE719" offset="41.77%"></stop>
            <stop stop-color="#97FB1D" offset="50.67%"></stop>
            <stop stop-color="#B0FC4D" offset="53.25%"></stop>
            <stop stop-color="#D2FE8B" offset="56.92%"></stop>
            <stop stop-color="#DFFFA4" offset="58.66%"></stop>
        </radialGradient>
        <linearGradient x1="-0.00923694779%" y1="49.9900065%" x2="100.012972%" y2="49.9900065%" id="linearGradient-6">
            <stop stop-color="#35AA0C" offset="0%"></stop>
            <stop stop-color="#50C011" offset="3.383274%"></stop>
            <stop stop-color="#6AD515" offset="7.661657%"></stop>
            <stop stop-color="#7EE619" offset="12.39%"></stop>
            <stop stop-color="#8CF21B" offset="17.74%"></stop>
            <stop stop-color="#94F91D" offset="24.22%"></stop>
            <stop stop-color="#97FB1D" offset="35%"></stop>
            <stop stop-color="#ADFC46" offset="39.21%"></stop>
            <stop stop-color="#D1FE8A" offset="46.55%"></stop>
            <stop stop-color="#DFFFA4" offset="50%"></stop>
            <stop stop-color="#DCFF9E" offset="50.57%"></stop>
            <stop stop-color="#B7FD59" offset="57.48%"></stop>
            <stop stop-color="#A0FB2E" offset="62.47%"></stop>
            <stop stop-color="#97FB1D" offset="65%"></stop>
            <stop stop-color="#79E218" offset="73.1%"></stop>
            <stop stop-color="#54C411" offset="84.69%"></stop>
            <stop stop-color="#3DB10D" offset="94.07%"></stop>
            <stop stop-color="#35AA0C" offset="100%"></stop>
        </linearGradient>
        <linearGradient x1="-0.00505797101%" y1="49.8443033%" x2="100.004348%" y2="49.8443033%" id="linearGradient-7">
            <stop stop-color="#35AA0C" offset="0%"></stop>
            <stop stop-color="#50C011" offset="3.383274%"></stop>
            <stop stop-color="#6AD515" offset="7.661657%"></stop>
            <stop stop-color="#7EE619" offset="12.39%"></stop>
            <stop stop-color="#8CF21B" offset="17.74%"></stop>
            <stop stop-color="#94F91D" offset="24.22%"></stop>
            <stop stop-color="#97FB1D" offset="35%"></stop>
            <stop stop-color="#ADFC46" offset="39.21%"></stop>
            <stop stop-color="#D1FE8A" offset="46.55%"></stop>
            <stop stop-color="#DFFFA4" offset="50%"></stop>
            <stop stop-color="#DCFF9E" offset="50.57%"></stop>
            <stop stop-color="#B7FD59" offset="57.48%"></stop>
            <stop stop-color="#A0FB2E" offset="62.47%"></stop>
            <stop stop-color="#97FB1D" offset="65%"></stop>
            <stop stop-color="#79E218" offset="73.1%"></stop>
            <stop stop-color="#54C411" offset="84.69%"></stop>
            <stop stop-color="#3DB10D" offset="94.07%"></stop>
            <stop stop-color="#35AA0C" offset="100%"></stop>
        </linearGradient>
        <linearGradient x1="50%" y1="99.75%" x2="50%" y2="-0.342391304%" id="linearGradient-8">
            <stop stop-color="#DFFFA4" offset="41.34%"></stop>
            <stop stop-color="#D2FE8B" offset="43.08%"></stop>
            <stop stop-color="#B0FC4D" offset="46.75%"></stop>
            <stop stop-color="#97FB1D" offset="49.33%"></stop>
            <stop stop-color="#7EE719" offset="58.23%"></stop>
            <stop stop-color="#40B30E" offset="77%"></stop>
            <stop stop-color="#35AA0C" offset="80%"></stop>
        </linearGradient>
        <linearGradient x1="49.9164596%" y1="100.109783%" x2="49.9164596%" y2="0.0173913043%" id="linearGradient-9">
            <stop stop-color="#DFFFA4" offset="41.34%"></stop>
            <stop stop-color="#D2FE8B" offset="43.08%"></stop>
            <stop stop-color="#B0FC4D" offset="46.75%"></stop>
            <stop stop-color="#97FB1D" offset="49.33%"></stop>
            <stop stop-color="#7EE719" offset="58.23%"></stop>
            <stop stop-color="#40B30E" offset="77%"></stop>
            <stop stop-color="#35AA0C" offset="80%"></stop>
        </linearGradient>
        <linearGradient x1="49.9177019%" y1="99.575%" x2="49.9177019%" y2="-0.516304348%" id="linearGradient-10">
            <stop stop-color="#DFFFA4" offset="41.34%"></stop>
            <stop stop-color="#D2FE8B" offset="43.08%"></stop>
            <stop stop-color="#B0FC4D" offset="46.75%"></stop>
            <stop stop-color="#97FB1D" offset="49.33%"></stop>
            <stop stop-color="#7EE719" offset="58.23%"></stop>
            <stop stop-color="#40B30E" offset="77%"></stop>
            <stop stop-color="#35AA0C" offset="80%"></stop>
        </linearGradient>
        <linearGradient x1="50.0822981%" y1="99.575%" x2="50.0822981%" y2="-0.516304348%" id="linearGradient-11">
            <stop stop-color="#DFFFA4" offset="41.34%"></stop>
            <stop stop-color="#D2FE8B" offset="43.08%"></stop>
            <stop stop-color="#B0FC4D" offset="46.75%"></stop>
            <stop stop-color="#97FB1D" offset="49.33%"></stop>
            <stop stop-color="#7EE719" offset="58.23%"></stop>
            <stop stop-color="#40B30E" offset="77%"></stop>
            <stop stop-color="#35AA0C" offset="80%"></stop>
        </linearGradient>
        <linearGradient x1="50.0835404%" y1="100.109783%" x2="50.0835404%" y2="0.0173913043%" id="linearGradient-12">
            <stop stop-color="#DFFFA4" offset="41.34%"></stop>
            <stop stop-color="#D2FE8B" offset="43.08%"></stop>
            <stop stop-color="#B0FC4D" offset="46.75%"></stop>
            <stop stop-color="#97FB1D" offset="49.33%"></stop>
            <stop stop-color="#7EE719" offset="58.23%"></stop>
            <stop stop-color="#40B30E" offset="77%"></stop>
            <stop stop-color="#35AA0C" offset="80%"></stop>
        </linearGradient>
        <linearGradient x1="50%" y1="99.9206522%" x2="50%" y2="-0.17173913%" id="linearGradient-13">
            <stop stop-color="#DFFFA4" offset="41.34%"></stop>
            <stop stop-color="#D2FE8B" offset="43.08%"></stop>
            <stop stop-color="#B0FC4D" offset="46.75%"></stop>
            <stop stop-color="#97FB1D" offset="49.33%"></stop>
            <stop stop-color="#7EE719" offset="58.23%"></stop>
            <stop stop-color="#40B30E" offset="77%"></stop>
            <stop stop-color="#35AA0C" offset="80%"></stop>
        </linearGradient>
        <linearGradient x1="49.9177019%" y1="99.7456522%" x2="49.9177019%" y2="-0.34673913%" id="linearGradient-14">
            <stop stop-color="#DFFFA4" offset="41.34%"></stop>
            <stop stop-color="#D2FE8B" offset="43.08%"></stop>
            <stop stop-color="#B0FC4D" offset="46.75%"></stop>
            <stop stop-color="#97FB1D" offset="49.33%"></stop>
            <stop stop-color="#7EE719" offset="58.23%"></stop>
            <stop stop-color="#40B30E" offset="77%"></stop>
            <stop stop-color="#35AA0C" offset="80%"></stop>
        </linearGradient>
        <linearGradient x1="50.0822981%" y1="99.7456522%" x2="50.0822981%" y2="-0.34673913%" id="linearGradient-15">
            <stop stop-color="#DFFFA4" offset="41.34%"></stop>
            <stop stop-color="#D2FE8B" offset="43.08%"></stop>
            <stop stop-color="#B0FC4D" offset="46.75%"></stop>
            <stop stop-color="#97FB1D" offset="49.33%"></stop>
            <stop stop-color="#7EE719" offset="58.23%"></stop>
            <stop stop-color="#40B30E" offset="77%"></stop>
            <stop stop-color="#35AA0C" offset="80%"></stop>
        </linearGradient>
    </defs>
    <g id="Page-1" stroke="none" stroke-width="1" fill="none" fill-rule="evenodd">
        <g id="Ufo_Coin_SVG" transform="translate(-152.000000, -238.000000)" fill-rule="nonzero">
            <g id="Group" transform="translate(152.800000, 238.500000)">
                <path d="M64.3,148.6 C64.3,148.6 264.8,-1.13686838e-13 424,-1.13686838e-13 C584.8,-1.13686838e-13 783.9,143.3 783.9,143.3 C783.9,143.3 626.5,129.9 424,129.9 C221.5,129.9 64.3,148.6 64.3,148.6 Z" id="Path" fill="url(#linearGradient-1)"></path>
                <path d="M782.2,136.9 C705.3,89.2 591.3,53.5 424.8,53.5 C258.3,53.5 144.4,89.2 67.4,136.9 C30.5,159.8 0,191.4 0,234.9 L0,234.9 L0,234.9 L424.8,234.9 L849.5,234.9 L849.5,234.9 L849.5,234.9 C849.5,191.4 819.1,159.8 782.2,136.9 Z" id="Path" fill="url(#linearGradient-2)"></path>
                <ellipse id="Oval" fill="#121018" cx="424.8" cy="234.9" rx="424.7" ry="123.2"></ellipse>
                <path d="M849.5,271.7 C849.5,203.7 659.3,148.5 424.8,148.5 C190.3,148.5 0.1,203.6 0.1,271.7 L0.1,300.5 L849.6,300.5 L849.6,271.7 L849.5,271.7 Z" id="Path" fill="url(#linearGradient-3)"></path>
                <ellipse id="Oval" fill="url(#radialGradient-4)" cx="424.8" cy="300.5" rx="424.7" ry="123.2"></ellipse>
                <ellipse id="Oval" fill="url(#radialGradient-5)" cx="424.8" cy="346.9" rx="160" ry="36.8"></ellipse>
                <path d="M175.1,338.7 C175.1,335.4 176,332.1 177.4,329.2 C178.8,326.3 180.7,323.9 182.8,321.7 C186.9,317.3 191.7,314 196.6,311 C201.5,308.1 206.6,305.6 211.8,303.4 C217,301.2 222.2,299.2 227.5,297.4 C238.1,293.8 248.9,291 259.7,288.4 C270.5,285.9 281.4,283.8 292.4,282 C314.3,278.5 336.4,276.1 358.4,274.6 C380.5,273.1 402.6,272.4 424.8,272.5 C469,272.7 513.3,275.7 557.1,282.9 C568,284.7 578.9,286.9 589.7,289.4 C600.5,291.9 611.2,294.9 621.8,298.5 C627.1,300.3 632.3,302.3 637.4,304.5 C642.5,306.7 647.6,309.2 652.4,312.1 C657.2,315 661.9,318.3 665.9,322.6 C667.9,324.7 669.7,327.1 671,329.8 C672.3,332.5 673.1,335.6 673.1,338.7 C673.1,341.8 672.2,344.9 670.8,347.5 C669.4,350.2 667.6,352.5 665.6,354.6 C661.6,358.8 656.9,362 652,364.8 C647.1,367.6 642.1,370 636.9,372.1 C631.8,374.2 626.5,376.1 621.3,377.8 C600.2,384.6 578.4,388.9 556.6,392.4 C534.8,395.8 512.8,398 490.8,399.5 C468.8,401 446.7,401.7 424.7,401.7 C413.7,401.7 402.6,401.6 391.6,401.2 C386.1,401 380.6,400.8 375.1,400.6 C369.6,400.3 364.1,400.1 358.6,399.7 C347.6,399 336.6,398.2 325.6,397.1 C314.6,396 303.6,394.7 292.7,393.1 C281.8,391.5 270.9,389.6 260,387.3 C249.2,385 238.4,382.3 227.8,379 C222.5,377.3 217.2,375.4 212,373.3 C206.8,371.2 201.7,368.8 196.8,365.9 C191.9,363 187.1,359.8 182.9,355.5 C180.8,353.3 178.9,350.9 177.5,348.1 C176,345.3 175.1,342 175.1,338.7 Z M181.9,338.7 C181.9,340.9 182.4,343 183.5,345.1 C184.5,347.2 186,349.2 187.7,351 C191.1,354.7 195.5,357.8 200,360.5 C204.6,363.2 209.4,365.6 214.4,367.8 C219.4,370 224.4,371.9 229.6,373.7 C239.9,377.3 250.5,380.3 261.1,382.8 C271.8,385.4 282.5,387.6 293.3,389.5 C336.6,397.1 380.7,400.2 424.8,400.2 C468.8,400.1 513,397.3 556.4,390.2 C567.3,388.4 578.1,386.3 588.8,383.8 C599.5,381.3 610.1,378.4 620.5,374.9 C625.7,373.1 630.8,371.2 635.8,369 C640.8,366.8 645.7,364.4 650.3,361.7 C654.9,358.9 659.3,355.8 662.9,351.9 C664.7,350 666.2,347.9 667.4,345.7 C668.5,343.4 669.1,341 669.1,338.6 C669.1,336.2 668.4,333.8 667.3,331.6 C666.1,329.4 664.6,327.4 662.8,325.5 C659.2,321.8 654.7,318.7 650.1,316 C645.4,313.3 640.5,311 635.5,308.9 C630.5,306.8 625.3,305 620.2,303.3 C609.8,300 599.2,297.2 588.5,294.9 C577.8,292.6 567,290.7 556.2,289 C534.5,285.7 512.7,283.5 490.8,282.1 C468.9,280.7 446.9,280.1 425,280.1 C403,280.2 381.1,280.9 359.2,282.5 C337.3,284.1 315.5,286.4 293.9,289.9 C283.1,291.6 272.3,293.6 261.7,296 C251,298.4 240.5,301.2 230.2,304.5 C225,306.2 219.9,308 215,310.1 C210,312.2 205.2,314.5 200.6,317.1 C196,319.8 191.7,322.8 188.2,326.4 C186.5,328.2 185,330.1 183.9,332.2 C182.5,334.3 181.9,336.5 181.9,338.7 Z" id="Shape" fill="url(#linearGradient-6)"></path>
                <path d="M80.6,320.6 C80.6,316.5 81.6,312.5 83.2,308.9 C84.8,305.2 87.2,301.9 89.7,298.9 C92.3,295.9 95.2,293.2 98.2,290.8 C101.3,288.3 104.5,286.1 107.7,284 C114.3,279.8 121.2,276.2 128.3,272.9 C135.4,269.6 142.6,266.7 149.9,264.1 C164.5,258.8 179.4,254.4 194.4,250.6 C209.4,246.8 224.6,243.6 239.8,240.8 C255,238 270.4,235.7 285.7,233.7 C301.1,231.7 316.5,230.1 331.9,228.9 C347.3,227.7 362.8,226.7 378.3,226.1 C393.8,225.5 409.3,225.2 424.7,225.2 C486.6,225.4 548.6,229.5 609.8,240 C625.1,242.7 640.3,245.8 655.4,249.5 C670.5,253.2 685.4,257.5 700.1,262.8 C707.4,265.4 714.7,268.3 721.8,271.6 C728.9,274.9 735.9,278.5 742.6,282.8 C745.9,284.9 749.2,287.2 752.3,289.8 C755.4,292.3 758.4,295.1 761,298.1 C763.7,301.2 766.1,304.6 767.8,308.4 C769.5,312.2 770.6,316.5 770.6,320.8 C770.5,325.1 769.5,329.3 767.7,333.1 C765.9,336.9 763.5,340.3 760.8,343.3 C758.1,346.3 755.1,349 752,351.5 C748.9,354 745.6,356.2 742.3,358.3 C735.6,362.4 728.6,366 721.5,369.1 C714.4,372.2 707.1,375 699.8,377.6 C685.1,382.6 670.1,386.7 655.1,390.2 C640,393.7 624.8,396.6 609.6,399.1 C579.1,404.1 548.3,407.3 517.5,409.5 C486.7,411.7 455.8,412.6 424.9,412.5 C394,412.4 363.2,411.3 332.4,409 C301.6,406.7 270.9,403.3 240.5,398.1 C225.3,395.6 210.1,392.6 195.1,389.1 C180.1,385.5 165.2,381.4 150.5,376.4 C143.2,373.9 136,371.1 128.9,367.9 C121.8,364.8 114.9,361.2 108.3,357.2 C105,355.1 101.8,352.9 98.7,350.5 C95.6,348.1 92.7,345.4 90.1,342.5 C87.5,339.6 85.1,336.3 83.5,332.7 C81.6,328.6 80.6,324.6 80.6,320.6 Z M83,320.6 C83,324.3 83.9,327.9 85.4,331.3 C86.9,334.7 89.1,337.8 91.6,340.7 C94.1,343.6 96.9,346.1 99.8,348.5 C102.8,350.9 105.9,353.1 109.1,355.2 C115.6,359.3 122.4,362.9 129.4,366 C136.4,369.2 143.5,372 150.8,374.6 C165.3,379.8 180.2,384 195.1,387.6 C210.1,391.3 225.2,394.3 240.4,396.9 C270.8,402.1 301.5,405.6 332.3,407.9 C363.1,410.1 393.9,411.1 424.8,411.1 C486.5,410.8 548.2,406.5 609,396 C624.2,393.3 639.3,390.2 654.2,386.5 C669.1,382.8 683.9,378.5 698.3,373.3 C705.5,370.7 712.6,367.8 719.6,364.7 C726.5,361.5 733.3,358 739.7,353.9 C742.9,351.9 746,349.7 748.9,347.3 C751.8,345 754.5,342.4 756.9,339.6 C759.3,336.8 761.4,333.8 762.8,330.6 C764.2,327.4 765,324 765,320.6 C764.9,317.2 764.1,313.8 762.6,310.6 C761.1,307.4 759,304.5 756.6,301.8 C754.2,299.1 751.4,296.6 748.5,294.3 C745.6,292 742.5,289.9 739.3,287.9 C732.9,284 726.1,280.5 719.2,277.5 C712.2,274.4 705.1,271.7 697.9,269.2 C669,259.3 638.8,252.9 608.6,247.8 C578.3,242.8 547.7,239.5 517,237.3 C486.3,235.1 455.6,234.1 424.8,234.1 C409.4,234.1 394,234.3 378.7,234.9 C371,235.2 363.3,235.5 355.7,235.8 C348,236.2 340.3,236.6 332.7,237.1 C317.4,238.1 302,239.4 286.8,241 C271.5,242.6 256.3,244.6 241.1,246.9 C225.9,249.3 210.8,252.1 195.8,255.4 C180.8,258.8 166,262.7 151.4,267.7 C144.1,270.2 137,272.9 130,276 C123,279.1 116.1,282.5 109.6,286.5 C106.4,288.5 103.2,290.7 100.2,293 C97.2,295.3 94.4,297.9 91.9,300.7 C89.4,303.5 87.2,306.6 85.6,309.9 C84,313.3 83.1,316.9 83,320.6 Z" id="Shape" fill="url(#linearGradient-7)"></path>
                <ellipse id="Oval" fill="url(#linearGradient-8)" cx="424.8" cy="201.4" rx="16.1" ry="4.6"></ellipse>
                <ellipse id="Oval" fill="url(#linearGradient-9)" cx="42.1" cy="300.5" rx="16.1" ry="4.6"></ellipse>
                <ellipse id="Oval" fill="url(#linearGradient-10)" cx="178.5" cy="228.8" rx="16.1" ry="4.6"></ellipse>
                <ellipse id="Oval" fill="url(#linearGradient-11)" cx="671.1" cy="228.8" rx="16.1" ry="4.6"></ellipse>
                <ellipse id="Oval" fill="url(#linearGradient-12)" cx="807.5" cy="300.5" rx="16.1" ry="4.6"></ellipse>
                <ellipse id="Oval" fill="url(#linearGradient-13)" cx="424.8" cy="128.1" rx="16.1" ry="4.6"></ellipse>
                <ellipse id="Oval" fill="url(#linearGradient-14)" cx="178.5" cy="155.5" rx="16.1" ry="4.6"></ellipse>
                <ellipse id="Oval" fill="url(#linearGradient-15)" cx="671.1" cy="155.5" rx="16.1" ry="4.6"></ellipse>
            </g>
        </g>
    </g>
</svg>