<?xml version="1.0" encoding="UTF-8"?>
<svg width="544px" height="543px" viewBox="0 0 544 543" version="1.1" xmlns="http://www.w3.org/2000/svg" xmlns:xlink="http://www.w3.org/1999/xlink">
    <title>vPLS</title>
    <g id="Page-1" stroke="none" stroke-width="1" fill="none" fill-rule="evenodd">
        <g id="vPLS" transform="translate(0.000000, 0.000000)" fill-rule="nonzero">
            <path d="M254.499951,0 L254.499951,35.1305192 L250.817493,35.465255 C192.157602,40.6620278 137.757646,67.5329419 97.6272169,111.123908 C57.2457112,154.974294 34.9835754,211.879375 34.9835754,271.378658 C34.9553244,330.791214 57.3197658,388.032412 97.6188477,431.691988 C137.766015,475.308059 192.165971,502.195709 250.809124,507.400851 L254.491582,507.735586 L254.491582,543 L250.139586,542.656896 C182.248441,537.209071 119.194707,506.57238 72.6283449,456.387119 C25.89343,406.169454 -0.0604236635,340.101046 0.000109379398,271.504184 C-0.0614883754,202.905554 25.895877,136.83582 72.6367141,86.6212492 C119.211446,36.4192519 182.248441,5.79092885 250.147955,0.35147256 L254.499951,0 Z M289.516784,0 L293.860412,0.334735771 C361.751557,5.77419206 424.80529,36.4276203 471.371652,86.6212492 L471.371652,86.6045125 C518.106033,136.819159 544.059971,202.884791 543.999889,271.479079 C544.06186,340.074646 518.11117,406.142612 471.380022,456.362014 C424.80529,506.555643 361.768295,537.192334 293.868781,542.631791 L289.516784,542.983263 L289.516784,507.852744 L293.199243,507.526377 C351.850765,502.321235 406.250721,475.433585 446.389519,431.809145 C486.771025,387.916917 509.016422,330.986731 509.016422,271.495816 C509.047776,212.084235 486.686266,154.842892 446.389519,111.182486 C406.242351,67.5664155 351.842395,40.6703962 293.199243,35.465255 L289.516784,35.1305192 L289.516784,0 Z M204.386516,242.037342 L304.417833,335.275639 C326.330948,355.895592 360.661783,355.302479 381.850983,333.937872 L472.000664,243.86157 C473.331387,253.112102 473.99458,262.446581 473.985091,271.79252 L473.985091,281.035273 C474.00497,281.305163 474.00497,281.576151 473.985091,281.846041 C469.679899,373.164624 404.837864,450.296375 315.686667,470.147265 C226.535471,489.998155 135.142708,447.654493 92.5701323,366.773968 C92.5525718,366.693844 92.5525718,366.610862 92.5701323,366.530738 C89.5327441,360.976978 86.900341,355.38268 84.510929,349.666767 L110.146485,323.965428 L191.791479,242.280572 C195.231014,238.798106 200.815351,238.690264 204.386516,242.037342 Z" id="Shape" fill="#FF8533"></path>
            <path d="M69,271.79252 C69,268.508911 69,265.184763 69.2429911,261.901153 C69.2631803,261.604215 69.2631803,261.306247 69.2429911,261.009308 C74.0452795,170.066959 138.851472,93.4955355 227.679993,73.808884 C316.508513,54.1222326 407.548528,96.154187 450.252964,176.567842 C450.266259,176.661964 450.266259,176.757489 450.252964,176.851611 C452.885367,181.797294 455.315278,186.905132 457.542696,192.094045 L348.844698,301.061238 C345.403189,304.553538 339.801545,304.643685 336.249661,301.26393 L236.218344,208.025633 C214.313546,187.384138 179.965339,187.977552 158.785195,209.3634 L102.087282,266.117146 L70.6604389,297.453321 C69.5587814,288.944117 69.0041605,280.37288 69,271.79252 L69,271.79252 Z" id="Path" fill="#4F8CEF"></path>
        </g>
    </g>
</svg>