<?xml version="1.0" encoding="UTF-8"?>
<svg width="101px" height="101px" viewBox="0 0 101 101" version="1.1" xmlns="http://www.w3.org/2000/svg" xmlns:xlink="http://www.w3.org/1999/xlink">
    <g stroke="none" stroke-width="1" fill="none" fill-rule="evenodd">
        <g transform="translate(0.319999, 0.259967)" fill-rule="nonzero">
            <path d="M50.3000002,1.58704443e-05 C63.6613935,-0.0105861906 76.4788816,5.29113548 85.9286919,14.7371944 C95.3785023,24.1832533 100.685313,36.9986353 100.680004,50.3600318 C100.668949,78.1542311 78.1341964,100.680016 50.3399949,100.680016 C22.5457933,100.680016 0.0110492461,78.1542126 4.05579476e-06,50.3600133 C-0.0110330169,22.5658139 22.5058074,0.0221191676 50.3000002,1.58704443e-05 Z M78.9600002,81.7900318 C62.7339556,96.6276983 37.8660447,96.6276983 21.6400002,81.7900318 L18.6400002,84.7900318 C36.5458125,101.297859 64.1241879,101.297859 82.0300002,84.7900318 Z M15.8700002,18.7300318 C-0.637826592,36.6358441 -0.637826592,64.2142195 15.8700002,82.1200318 L18.8700002,79.0200318 C4.05061356,62.7983985 4.05061356,37.951665 18.8700002,21.7300318 Z M84.7700002,18.6000318 L84.7700002,18.6700318 L81.7700002,21.6700318 C96.6076667,37.8960763 96.6076667,62.7639873 81.7700002,78.9900318 L84.7700002,81.9900318 C101.277827,64.0842195 101.277827,36.5058441 84.7700002,18.6000318 Z M82.0000002,15.9300318 C64.0941879,-0.577794966 36.5158125,-0.577794966 18.6100002,15.9300318 L21.6800002,18.9300318 C37.9060447,4.09236527 62.7739556,4.09236527 79.0000002,18.9300318 Z" fill="#FFFFFF"></path>
            <path d="M69.2500002,40.3600318 C68.6500002,34.1000318 63.2500002,32.0000318 56.4200002,31.3600318 L56.4200002,22.7400318 L51.1400002,22.7400318 L51.1400002,31.2000318 C49.7500002,31.2000318 48.3300002,31.2000318 46.9200002,31.2000318 L46.9200002,22.7400318 L41.6800002,22.7400318 L41.6800002,31.4200318 L30.9700002,31.4200318 L30.9700002,37.0700318 C30.9700002,37.0700318 34.8700002,37.0000318 34.8100002,37.0700318 C36.2716108,36.9092396 37.5979844,37.9349685 37.8100002,39.3900318 L37.8100002,63.1500318 C37.7796461,63.6488208 37.5488019,64.1141161 37.1700002,64.4400318 C36.7982502,64.7722142 36.3070665,64.9383499 35.8100002,64.9000318 C35.8800002,64.9600318 31.9700002,64.9000318 31.9700002,64.9000318 L30.9700002,71.2100318 L41.5800002,71.2100318 L41.5800002,80.0300318 L46.8600002,80.0300318 L46.8600002,71.3400318 L51.0800002,71.3400318 L51.0800002,79.9900318 L56.3700002,79.9900318 L56.3700002,71.2700318 C65.2900002,70.7300318 71.5100002,68.5300318 72.2900002,60.1800318 C72.9200002,53.4600318 69.7600002,50.4600318 64.7100002,49.2500318 C67.7800002,47.7400318 69.6800002,44.9400318 69.2500002,40.3600318 Z M61.8500002,59.1400318 C61.8500002,65.7000318 50.6100002,64.9500318 47.0300002,64.9500318 L47.0300002,53.3100318 C50.6100002,53.3200318 61.8500002,52.2900318 61.8500002,59.1400318 Z M59.4000002,42.7400318 C59.4000002,48.7400318 50.0200002,48.0100318 47.0400002,48.0100318 L47.0400002,37.4300318 C50.0200002,37.4300318 59.4000002,36.4900318 59.4000002,42.7400318 Z" fill="#F09242"></path>
        </g>
    </g>
</svg>