<svg width="1024" height="1024" viewBox="0 0 1024 1024" fill="none" xmlns="http://www.w3.org/2000/svg">
<g clip-path="url(#clip0_2080_17)">
<circle cx="512" cy="512" r="457" fill="#1E1E1E"/>
<path d="M512 0C794.77 0 1024 229.23 1024 512C1024 794.77 794.77 1024 512 1024C229.23 1024 0 794.77 0 512C0 229.23 229.23 0 512 0ZM512 87C277.279 87 87 277.279 87 512C87 746.721 277.279 937 512 937C746.721 937 937 746.721 937 512C937 277.279 746.721 87 512 87Z" fill="#627EEA"/>
<path fill-rule="evenodd" clip-rule="evenodd" d="M543.046 169.758L653.666 233.624C673.891 245.301 686.351 266.882 686.351 290.236V417.969C686.351 419.475 686.299 420.973 686.197 422.462C688.257 423.38 690.281 424.41 692.26 425.553L802.88 489.419C823.105 501.097 835.565 522.677 835.565 546.031V673.764C835.565 697.118 823.105 718.699 802.88 730.376L692.26 794.242C672.035 805.919 647.116 805.919 626.89 794.242L516.271 730.376C514.729 729.486 513.232 728.538 511.782 727.536C510.333 728.538 508.836 729.486 507.294 730.376L396.674 794.242C376.449 805.919 351.53 805.919 331.305 794.242L220.685 730.376C200.459 718.699 188 697.118 188 673.764V546.031C188 522.677 200.459 501.097 220.685 489.419L331.305 425.553C332.399 424.921 333.507 424.324 334.628 423.76C334.458 421.846 334.372 419.913 334.372 417.969V290.236C334.372 266.882 346.831 245.301 367.057 233.624L477.676 169.758C497.902 158.081 522.821 158.081 543.046 169.758ZM363.47 472.353L244.612 540.975V678.82L363.989 747.743L483.367 678.82L483.368 541.372C481.436 540.496 479.536 539.521 477.676 538.447L367.057 474.581C365.832 473.874 364.636 473.13 363.47 472.353ZM659.575 472.052L540.198 540.975V678.82L659.575 747.743L778.953 678.82V540.975L659.575 472.052ZM510.361 216.257L390.984 285.18L390.984 422.629C392.916 423.505 394.815 424.48 396.674 425.553L507.294 489.419C508.518 490.126 509.714 490.87 510.881 491.647L629.739 423.025V285.18L510.361 216.257Z" fill="url(#paint0_linear_2080_17)"/>
</g>
<defs>
<linearGradient id="paint0_linear_2080_17" x1="766.089" y1="-18.9769" x2="256.099" y2="748.984" gradientUnits="userSpaceOnUse">
<stop stop-color="#FF00FF"/>
<stop offset="0.538648" stop-color="#FF3333"/>
<stop offset="1" stop-color="#FFDD00"/>
</linearGradient>
<clipPath id="clip0_2080_17">
<rect width="1024" height="1024" fill="white"/>
</clipPath>
</defs>
</svg>
