<svg width="1024" height="1024" viewBox="0 0 1024 1024" fill="none" xmlns="http://www.w3.org/2000/svg">
<g clip-path="url(#clip0_2012_19)">
<circle cx="512" cy="512" r="457" fill="black"/>
<path d="M512 0C794.77 0 1024 229.23 1024 512C1024 794.77 794.77 1024 512 1024C229.23 1024 0 794.77 0 512C0 229.23 229.23 0 512 0ZM512 87C277.279 87 87 277.279 87 512C87 746.721 277.279 937 512 937C746.721 937 937 746.721 937 512C937 277.279 746.721 87 512 87Z" fill="#627EEA"/>
<path d="M346.916 774.375L304.623 701.141C303.31 698.426 303.31 695.26 304.623 692.546L351.613 611.185C353.282 608.628 356.066 607.017 359.114 606.843H453.048C456.1 607.02 458.889 608.63 460.571 611.185L507.538 692.546C508.897 695.281 508.897 698.495 507.538 701.23L460.438 782.547C458.755 785.032 456.038 786.62 453.048 786.866H368.663C359.87 786.299 351.838 781.685 346.916 774.375ZM651.867 606.909L558.378 444.81C556.068 441.343 552.273 439.153 548.117 438.887H360.917C356.76 439.153 352.966 441.343 350.655 444.81L257.056 606.999C255.21 610.731 255.21 615.111 257.056 618.844L284.59 666.405L332.581 583.307C335.21 579.296 339.571 576.756 344.356 576.449H467.672C472.492 576.718 476.896 579.264 479.536 583.307L541.216 690.186C543.398 694.497 543.398 699.59 541.216 703.902L493.225 787H548.05C552.218 786.753 556.023 784.548 558.311 781.055L651.867 618.889C653.757 615.119 653.757 610.679 651.867 606.909ZM821.704 499.652L678.244 250.803C673.286 243.233 665.019 238.478 655.985 238H368.841C359.806 238.478 351.54 243.233 346.582 250.803L203.055 499.652C198.982 507.686 198.982 517.181 203.055 525.214L235.976 582.238L331.334 416.866C334.604 411.876 340.048 408.736 346.003 408.405H562.83C568.779 408.736 574.216 411.877 577.476 416.866L685.856 604.638C688.55 609.957 688.55 616.242 685.856 621.561L590.409 786.866H656.074C665.108 786.389 673.375 781.634 678.333 774.063L821.86 525.236C825.911 517.198 825.911 507.713 821.86 499.675L821.704 499.652Z" fill="url(#paint0_linear_2012_19)"/>
</g>
<defs>
<linearGradient id="paint0_linear_2012_19" x1="757.855" y1="84.0945" x2="344.207" y2="787" gradientUnits="userSpaceOnUse">
<stop stop-color="#FF00FF"/>
<stop offset="0.538648" stop-color="#FF3333"/>
<stop offset="1" stop-color="#FFDD00"/>
</linearGradient>
<clipPath id="clip0_2012_19">
<rect width="1024" height="1024" fill="white"/>
</clipPath>
</defs>
</svg>
