<?xml version="1.0" encoding="UTF-8"?>
<svg width="1024px" height="1024px" viewBox="0 0 1024 1024" version="1.1" xmlns="http://www.w3.org/2000/svg" xmlns:xlink="http://www.w3.org/1999/xlink">
    <title>eLUCKY</title>
    <g id="PRC20s" stroke="none" stroke-width="1" fill="none" fill-rule="evenodd">
        <g id="eLUCKY" fill-rule="nonzero">
            <circle id="Oval" fill="#627EEA" cx="512" cy="512" r="512"></circle>
            <circle id="Oval-Copy-2" fill="#000000" cx="512" cy="513" r="425"></circle>
            <path d="M512,546.89881 L633.945452,668.833275 C658.062047,685.216107 673.904762,712.86804 673.904762,744.220238 C673.904762,794.517599 633.130694,835.291667 582.833333,835.291667 C554.219618,835.291667 528.687993,822.095672 512.007833,801.457392 C495.312007,822.095672 469.780382,835.291667 441.166667,835.291667 C390.869306,835.291667 350.095238,794.517599 350.095238,744.220238 C350.095238,712.885651 365.920161,685.247173 390.013915,668.860893 L512,546.89881 Z M279.261905,351.095238 C310.614103,351.095238 338.266036,366.937953 354.648868,391.054548 L476.583333,513 L354.62125,634.986085 C338.23497,659.079839 310.596492,674.904762 279.261905,674.904762 C228.964544,674.904762 188.190476,634.130694 188.190476,583.833333 C188.190476,555.219618 201.386471,529.687993 222.02475,512.992167 C201.386471,496.312007 188.190476,470.780382 188.190476,442.166667 C188.190476,391.869306 228.964544,351.095238 279.261905,351.095238 Z M744.738095,351.095238 C795.035456,351.095238 835.809524,391.869306 835.809524,442.166667 C835.809524,470.780382 822.613529,496.312007 801.97525,512.992167 C822.613529,529.687993 835.809524,555.219618 835.809524,583.833333 C835.809524,634.130694 795.035456,674.904762 744.738095,674.904762 C713.403508,674.904762 685.76503,659.079839 669.37875,634.986085 L547.416667,513 L669.351132,391.054548 C685.733964,366.937953 713.385897,351.095238 744.738095,351.095238 Z M582.327381,189.696429 C632.624742,189.696429 673.39881,230.470496 673.39881,280.767857 C673.39881,312.102444 657.573887,339.740922 633.480133,356.127203 L511.494048,478.089286 L389.548595,356.154821 C365.432001,339.771988 349.589286,312.120056 349.589286,280.767857 C349.589286,230.470496 390.363354,189.696429 440.660714,189.696429 C469.274429,189.696429 494.806054,202.892424 511.486214,223.530703 C528.182041,202.892424 553.713666,189.696429 582.327381,189.696429 Z" id="Combined-Shape" fill="#10E25B"></path>
        </g>
    </g>
</svg>