<?xml version="1.0" encoding="UTF-8"?>
<svg width="1024px" height="1024px" viewBox="0 0 1024 1024" version="1.1" xmlns="http://www.w3.org/2000/svg" xmlns:xlink="http://www.w3.org/1999/xlink">
    <defs>
        <linearGradient x1="74.8814969%" y1="6.55716912%" x2="25.1517279%" y2="93.5551074%" id="g1">
            <stop stop-color="#00EAFF" offset="0%"></stop>
            <stop stop-color="#0080FF" offset="25%"></stop>
            <stop stop-color="#8000FF" offset="50%"></stop>
            <stop stop-color="#E619E6" offset="75%"></stop>
            <stop stop-color="#f00" offset="100%"></stop>
        </linearGradient>
    </defs>
    <g id="Page-1" stroke="none" stroke-width="1" fill="none" fill-rule="evenodd">
        <g id="WPLS" fill-rule="nonzero">
            <path d="M512,1024 C795.73504,1024 1024,795.73504 1024,512 C1024,228.26496 795.73504,0 512,0 C228.26496,0 0,228.26496 0,512 C0,795.73504 228.26496,1024 512,1024 Z" id="Path" fill="url(#g1)"></path>
            <path d="M512,87 C746.721019,87 937,277.278981 937,512 C937,746.721019 746.721019,937 512,937 C277.278981,937 87,746.721019 87,512 C87,277.278981 277.278981,87 512,87 Z M476.677525,390.40575 L423.338564,596.632481 L423.223434,597.057797 C421.905844,601.716643 418.90576,605.719892 414.807643,608.292075 L414.333734,608.58024 L414.020555,608.760839 C404.909954,613.90497 393.359346,610.946631 387.836742,602.078253 L387.579445,601.653349 L345.7192,530.541042 L180.541755,530.541042 C169.749141,530.541042 161,539.291394 161,550.085502 C161,553.413648 161.761697,556.567033 163.220526,559.312272 L313.780724,820.126612 C320.165386,831.186703 331.96473,838 344.734056,838 L679.265946,838 C692.035271,838 703.834614,831.186703 710.219276,820.126612 L860.765413,559.337126 C862.228513,556.587315 863,553.418693 863,550.085502 C863,539.291394 854.250859,530.541042 843.458245,530.541042 L668.285803,530.541042 L667.896737,530.537183 C661.29243,530.406133 655.201912,526.944988 651.707795,521.344551 L651.445692,520.912132 L625.047554,476.066117 L560.754576,724.642415 L560.653876,725.016516 C558.604238,732.342616 552.486392,737.81276 544.984944,739.03675 L544.50632,739.108804 L544.163036,739.153139 C533.759315,740.404956 524.219855,733.212863 522.546568,722.881715 L522.477175,722.418856 L476.677525,390.40575 Z M679.265946,187 L344.734056,187 C331.96473,187 320.165386,193.813297 313.780724,204.873388 L163.173197,465.76394 C161.741247,468.49249 161,471.614019 161,474.914498 C161,485.708606 169.749141,494.458958 180.541755,494.458958 L355.173042,494.458958 L355.562108,494.462817 C362.166414,494.593867 368.256933,498.055014 371.751049,503.65545 L372.013152,504.087869 L398.409786,548.93238 L462.704268,300.357585 L462.794208,300.021937 C465.636407,289.773442 476.180953,283.656448 486.517282,286.330638 C494.029796,288.274258 499.665062,294.472805 500.909625,302.102452 L500.981669,302.581144 L546.779817,634.592747 L600.12028,428.367521 L600.20987,428.033136 C603.009922,417.934027 613.289232,411.846402 623.478894,414.228686 L623.933295,414.340574 L624.358552,414.45572 C629.016753,415.773492 633.019448,418.77399 635.591275,422.872676 L635.8794,423.346651 L677.739645,494.458958 L843.458245,494.458958 C854.250859,494.458958 863,485.708606 863,474.914498 C863,471.588522 862.230766,468.421672 860.774813,465.674739 L710.219276,204.873388 C703.834614,193.813297 692.035271,187 679.265946,187 Z" fill="#fff"></path>
        </g>
    </g>
</svg>