<?xml version="1.0" encoding="UTF-8"?>
<svg version="1.1" xmlns="http://www.w3.org/2000/svg" width="1000" height="1000">
<path d="M0 0 C0.7021954 0.00023918 1.40439079 0.00047836 2.12786484 0.00072479 C25.29743001 0.01068653 48.06844711 0.87363438 71 4.375 C72.50076935 4.59714295 74.00158406 4.8189797 75.50244141 5.04052734 C104.33921022 9.35070826 132.27237916 16.34416813 160 25.375 C160.85932129 25.65279297 161.71864258 25.93058594 162.60400391 26.21679688 C194.85379573 36.74576503 226.9704137 50.99767519 255.78955078 68.99804688 C258.4202916 70.63681186 261.06791926 72.24688575 263.71484375 73.859375 C281.3182406 84.64922834 297.92506148 96.43258782 314 109.375 C315.46373047 110.54675781 315.46373047 110.54675781 316.95703125 111.7421875 C322.25425013 116.02441479 327.39054523 120.44306412 332.41796875 125.0390625 C333.78577001 126.27649843 335.15886857 127.50904304 336.56860352 128.69848633 C343.26598227 134.38717505 349.41035414 140.63469245 355.60913086 146.85375977 C357.5579687 148.80795624 359.51209272 150.75675147 361.46679688 152.70507812 C367.52351977 158.75827346 373.48881597 164.81351903 379 171.375 C379.9601039 172.4706252 380.92230917 173.5644129 381.88671875 174.65625 C393.94774228 188.4630599 404.57578389 203.31093586 415 218.375 C415.42490723 218.98633789 415.84981445 219.59767578 416.28759766 220.22753906 C440.82889161 255.69228649 459.38062066 294.91117815 474 335.375 C474.34015137 336.30876465 474.68030273 337.2425293 475.03076172 338.20458984 C485.57823763 367.43207014 492.22528385 398.2417141 496.6875 428.9375 C496.84187027 429.98629333 496.84187027 429.98629333 496.99935913 431.05627441 C500.33793221 453.9680372 501.37820006 476.66645706 501.3125 499.8125 C501.31027732 501.1975809 501.30810081 502.58266188 501.30596924 503.96774292 C501.26343111 523.9209155 500.87699895 543.59499116 498 563.375 C497.79364826 564.84403383 497.58760878 566.31311154 497.38183594 567.78222656 C494.42719035 588.61740238 490.44344175 609.03462477 485 629.375 C484.69336426 630.53789551 484.38672852 631.70079102 484.07080078 632.89892578 C469.99132994 685.85204187 446.46140232 737.44553161 415 782.375 C414.60683594 782.93864258 414.21367188 783.50228516 413.80859375 784.08300781 C410.91929142 788.21489595 407.97594988 792.30515816 405 796.375 C404.52804199 797.02114258 404.05608398 797.66728516 403.56982422 798.33300781 C394.72696699 810.39383651 385.34587255 821.81072636 375.265625 832.86328125 C374.0551255 834.20526604 372.85003726 835.55292237 371.68530273 836.93481445 C365.99364623 843.63505079 359.74320736 849.78246379 353.52124023 855.98413086 C351.56704376 857.9329687 349.61824853 859.88709272 347.66992188 861.84179688 C341.62023434 867.89539703 335.5886938 873.90158226 329 879.375 C328.36006104 879.91632568 327.72012207 880.45765137 327.06079102 881.01538086 C306.87882649 898.02149074 285.634566 914.11720882 262.76367188 927.34375 C261.00056134 928.37467177 259.25635683 929.43177934 257.515625 930.5 C253.70374501 932.83784083 249.86010538 935.11777441 246 937.375 C245.26620117 937.80619141 244.53240234 938.23738281 243.77636719 938.68164062 C217.413836 954.01864379 188.9296489 965.85548596 160 975.375 C158.86143555 975.7570459 157.72287109 976.1390918 156.54980469 976.53271484 C126.39364853 986.59740569 95.50259618 993.27942438 64 997.375 C62.20127441 997.62056641 62.20127441 997.62056641 60.36621094 997.87109375 C20.42105265 1003.12617845 -22.09355686 1002.80111237 -62 997.375 C-63.25780273 997.21402832 -64.51560547 997.05305664 -65.81152344 996.88720703 C-108.98482444 991.25943263 -152.34411321 980.28760563 -192.20849609 962.61181641 C-195.45927538 961.17151136 -198.7241232 959.76518113 -201.98828125 958.35546875 C-217.0881531 951.78851427 -231.7383205 944.62749427 -246 936.375 C-247.02988037 935.78041992 -247.02988037 935.78041992 -248.08056641 935.17382812 C-252.43171744 932.6448791 -256.72224493 930.02569961 -261 927.375 C-261.72219727 926.93220703 -262.44439453 926.48941406 -263.18847656 926.03320312 C-275.18998916 918.66553771 -286.71734306 910.80083909 -298 902.375 C-298.60569824 901.92382812 -299.21139648 901.47265625 -299.83544922 901.0078125 C-308.16173134 894.77902678 -316.12964254 888.16449504 -324 881.375 C-325.10988281 880.41787109 -325.10988281 880.41787109 -326.2421875 879.44140625 C-328.17164489 877.76378567 -330.08587292 876.07008405 -332 874.375 C-333.0202124 873.48204224 -333.0202124 873.48204224 -334.06103516 872.57104492 C-341.0772801 866.35872913 -347.71951828 859.80863595 -354.33276367 853.17260742 C-356.19142108 851.30856756 -358.05539614 849.44996488 -359.91992188 847.59179688 C-365.82499285 841.6903694 -371.63502176 835.77956526 -377 829.375 C-377.91195791 828.31831729 -378.82468796 827.26230035 -379.73828125 826.20703125 C-407.81188496 793.2769923 -430.63095571 757.00555306 -450 718.375 C-450.40057617 717.57787598 -450.80115234 716.78075195 -451.21386719 715.95947266 C-474.9260698 668.34930364 -488.99482617 615.95146598 -496 563.375 C-496.15243164 562.29669922 -496.30486328 561.21839844 -496.46191406 560.10742188 C-501.86219723 520.56755161 -501.75158516 476.87229379 -496 437.375 C-495.79371487 435.91132803 -495.58767184 434.44762193 -495.38183594 432.98388672 C-481.45710551 335.19812642 -440.2678705 242.04230577 -350.16333008 143.35302734 C-348.42955057 141.61704044 -346.70398462 139.8731489 -344.97851562 138.12890625 C-339.01394696 132.13509639 -332.98111143 126.48780089 -326.33666992 121.24414062 C-324.09514558 119.45110851 -321.97960067 117.5756651 -319.875 115.625 C-312.95505461 109.41794419 -305.44190794 103.93296118 -298 98.375 C-296.91404541 97.55974854 -296.91404541 97.55974854 -295.80615234 96.72802734 C-284.70960184 88.42871667 -273.22856392 80.95716682 -261.36279297 73.80615234 C-259.32508089 72.57190268 -257.30195922 71.3187574 -255.28515625 70.05078125 C-242.96716693 62.37066834 -229.94580933 55.9156629 -217 49.375 C-215.72382812 48.7248291 -215.72382812 48.7248291 -214.421875 48.06152344 C-168.70903105 24.91356547 -117.68721994 11.32664216 -67.1875 4.1875 C-65.54575806 3.95498535 -65.54575806 3.95498535 -63.87084961 3.71777344 C-60.25139503 3.23025832 -56.62828211 2.79026911 -53 2.375 C-52.25204163 2.28706177 -51.50408325 2.19912354 -50.73345947 2.10852051 C-33.84523161 0.1772478 -16.97917253 -0.02569792 0 0 Z " fill="#FEFEFE" transform="translate(499,-0.375)"/>
<path d="M0 0 C3.97900835 2.25226888 5.41847501 3.70814502 7.3125 7.875 C8.08203922 12.75403733 8.1180219 16.39130065 5.72802734 20.79345703 C2.95025006 24.33713046 0.13707248 25.93235557 -3.8671875 27.7421875 C-4.57019989 28.07636688 -5.27321228 28.41054626 -5.99752808 28.75485229 C-7.47948563 29.45727486 -8.96489529 30.15245569 -10.45349121 30.84069824 C-12.60537588 31.83697816 -14.74591672 32.85392999 -16.88378906 33.87988281 C-21.18379369 35.94040781 -25.4972725 37.97159379 -29.8125 40 C-31.39441565 40.74526124 -32.97628323 41.49062451 -34.55810547 42.23608398 C-45.51088347 47.39463289 -56.47813267 52.52196244 -67.453125 57.63305664 C-76.91841769 62.04215513 -86.3671844 66.48578943 -95.8125 70.9375 C-107.21575735 76.3116492 -118.6360705 81.64636884 -130.07519531 86.94384766 C-139.9816916 91.53634715 -149.86202407 96.18336139 -159.73925781 100.83837891 C-170.3215124 105.82539112 -180.91474198 110.78800459 -191.5189209 115.72821045 C-202.35636151 120.777923 -213.17512369 125.86669372 -223.99029541 130.96389771 C-233.50001536 135.44490427 -243.02220549 139.89687668 -252.5625 144.3125 C-263.29598594 149.28084187 -273.99639052 154.31628947 -284.6875 159.375 C-296.48019238 164.95494633 -308.28965657 170.49437566 -320.13012695 175.97241211 C-331.18933843 181.0941257 -342.21336267 186.28992617 -353.23291016 191.49633789 C-360.01832217 194.69931793 -366.81168727 197.86922202 -373.6875 200.875 C-357.47970153 206.47258504 -341.16024276 211.47244318 -324.63623047 216.05126953 C-322.27301657 216.71143543 -319.91811661 217.39025727 -317.56640625 218.08984375 C-305.92403744 221.44123084 -293.95699679 223.31631503 -282.02148438 225.30664062 C-279.18821748 225.78964043 -276.36840878 226.31319858 -273.546875 226.859375 C-243.65569637 232.30446487 -210.78700823 230.24939264 -181.6875 221.875 C-180.42164063 221.51664063 -179.15578125 221.15828125 -177.8515625 220.7890625 C-151.89310722 213.19885186 -128.24447957 201.18527828 -106.6875 184.875 C-106.06939453 184.4123877 -105.45128906 183.94977539 -104.81445312 183.47314453 C-96.99754195 177.59794742 -89.70431982 171.29826167 -82.58984375 164.59375 C-80.22570468 162.37915944 -77.83305068 160.23326959 -75.375 158.125 C-69.31163796 152.86414176 -63.81049364 147.13821657 -58.5859375 141.05078125 C-56.42004995 138.56847802 -54.17873043 136.16444855 -51.9375 133.75 C-46.69702544 127.99575343 -41.89816178 121.96008877 -37.16015625 115.7890625 C-35.6463553 113.8215228 -34.12075327 111.86355594 -32.59375 109.90625 C-18.85272752 92.21371195 -6.26225991 73.74650646 5.51953125 54.69921875 C6.32753174 53.3999646 6.32753174 53.3999646 7.15185547 52.07446289 C8.19314033 50.39704938 9.22767704 48.71542205 10.25439453 47.02905273 C10.72603027 46.26923096 11.19766602 45.50940918 11.68359375 44.7265625 C12.3012561 43.71843506 12.3012561 43.71843506 12.93139648 42.68994141 C15.09421683 39.84772708 17.18704395 38.09460118 20.71484375 37.40625 C27.61666683 37.3211736 27.61666683 37.3211736 31.375 40.3125 C32.3340625 41.5809375 32.3340625 41.5809375 33.3125 42.875 C33.6425 43.205 33.9725 43.535 34.3125 43.875 C35.23905541 54.43773171 29.0791315 62.06854684 23.5625 70.625 C22.9348877 71.60364014 22.30727539 72.58228027 21.66064453 73.59057617 C19.88366709 76.35581053 18.10016215 79.11666398 16.3125 81.875 C15.90418945 82.5055127 15.49587891 83.13602539 15.07519531 83.78564453 C-0.7253401 108.08213231 -18.2053342 131.87519946 -38.0546875 153.03125 C-40.06225471 155.19966088 -42.00280912 157.39080142 -43.9296875 159.62890625 C-48.07338918 164.38299886 -52.47715729 168.85662434 -56.9375 173.3125 C-57.77869385 174.15288818 -58.6198877 174.99327637 -59.48657227 175.85913086 C-65.29869784 181.61411553 -71.22930684 186.85640407 -77.6875 191.875 C-79.62857011 193.51662128 -81.56589769 195.1626752 -83.5 196.8125 C-95.43547577 206.74085468 -108.29888375 215.04369313 -121.6875 222.875 C-122.31205078 223.24367188 -122.93660156 223.61234375 -123.58007812 223.9921875 C-135.02662613 230.67666998 -147.29349835 235.26104724 -159.6875 239.875 C-160.58791016 240.22111328 -161.48832031 240.56722656 -162.41601562 240.92382812 C-173.18376066 244.99164292 -184.08162378 247.26680766 -195.4375 249 C-196.50871094 249.16886719 -197.57992187 249.33773437 -198.68359375 249.51171875 C-201.68295139 249.98025309 -204.68469129 250.42923101 -207.6875 250.875 C-208.93917969 251.07351563 -210.19085937 251.27203125 -211.48046875 251.4765625 C-246.33924256 255.59925695 -281.9493361 249.33784589 -315.73339844 241.33404541 C-318.40129578 240.70731953 -321.07574688 240.11065923 -323.75 239.51171875 C-341.71700867 235.36536197 -359.29415182 229.63670236 -376.90625 224.21484375 C-377.83450089 223.93092773 -378.76275177 223.64701172 -379.71913147 223.35449219 C-383.98110672 222.04555658 -388.22463109 220.70679014 -392.44140625 219.25830078 C-393.16944458 219.01358536 -393.89748291 218.76886993 -394.64758301 218.51673889 C-396.56714074 217.86767055 -398.48018116 217.19941372 -400.39257812 216.52954102 C-406.43449146 215.32930616 -411.36759706 218.55008335 -416.7265625 221.11328125 C-417.39608948 221.42999786 -418.06561646 221.74671448 -418.75543213 222.07302856 C-420.19309927 222.75350561 -421.63005042 223.43549704 -423.06634521 224.11886597 C-426.9108454 225.94793125 -430.76054673 227.76600238 -434.609375 229.5859375 C-435.3855014 229.95333542 -436.16162781 230.32073334 -436.96127319 230.69926453 C-443.81165763 233.94011316 -450.68354102 237.13271871 -457.5625 240.3125 C-468.29624715 245.28026838 -478.99639652 250.31629231 -489.6875 255.375 C-501.49559878 260.96223618 -513.32117629 266.5073816 -525.17626953 271.99438477 C-534.32204469 276.23121401 -543.44493089 280.51537826 -552.5625 284.8125 C-563.8702157 290.1417678 -575.18762948 295.44926215 -586.5189209 300.72821045 C-596.62893086 305.43897621 -606.72320762 310.18254188 -616.8125 314.9375 C-628.21578955 320.3115817 -639.63606985 325.64636854 -651.07519531 330.94384766 C-660.9816916 335.53634715 -670.86202407 340.18336139 -680.73925781 344.83837891 C-691.3215124 349.82539112 -701.91474198 354.78800459 -712.5189209 359.72821045 C-722.62893116 364.43897635 -732.72317926 369.18260164 -742.8125 373.9375 C-754.24339169 379.32428565 -765.6891164 384.67679507 -777.15649414 389.9855957 C-783.59061594 392.96624133 -790.01628886 395.96381486 -796.43359375 398.98046875 C-797.53749451 399.49916283 -797.53749451 399.49916283 -798.66369629 400.02833557 C-802.26724403 401.72183334 -805.86987482 403.41724134 -809.47119141 405.11547852 C-810.77373466 405.72808764 -812.07630489 406.34063943 -813.37890625 406.953125 C-814.52560791 407.49356445 -815.67230957 408.03400391 -816.85375977 408.59082031 C-821.47756801 410.68621373 -825.62763071 411.70904439 -830.6875 410.875 C-834.95632821 408.79872169 -837.95577821 406.36434512 -839.6875 401.875 C-840.24731695 397.40373471 -840.19211498 393.24042876 -838.625 389 C-833.10838834 382.9495227 -823.76586791 379.9243104 -816.5 376.4375 C-815.5470253 375.97872467 -815.5470253 375.97872467 -814.57479858 375.51068115 C-804.2776199 370.55413823 -793.93344095 365.70375842 -783.55932617 360.91015625 C-774.29082068 356.62693938 -765.04794169 352.29145681 -755.8125 347.9375 C-745.11416595 342.89502665 -734.40825758 337.86962648 -723.6875 332.875 C-713.00908261 327.89980806 -702.34446405 322.8959772 -691.6875 317.875 C-680.42041357 312.56656658 -669.14323417 307.28062694 -657.85351562 302.02050781 C-647.78676356 297.32946554 -637.73434203 292.60852116 -627.6875 287.875 C-616.42041357 282.56656658 -605.14323417 277.28062694 -593.85351562 272.02050781 C-583.78676356 267.32946554 -573.73434203 262.60852116 -563.6875 257.875 C-552.4210935 252.56688693 -541.14472976 247.28096943 -529.85552979 242.02151489 C-520.47048319 237.64855691 -511.09828749 233.24890066 -501.73239136 228.83508301 C-490.20912625 223.40462906 -478.67824407 217.99141995 -467.125 212.625 C-465.99626465 212.100271 -464.8675293 211.57554199 -463.70458984 211.03491211 C-457.72235169 208.26046822 -451.72487055 205.5274778 -445.6875 202.875 C-465.63296411 196.00641941 -485.4837886 189.518632 -505.99951172 184.54052734 C-509.5431988 183.66313488 -513.04850667 182.67687676 -516.5625 181.6875 C-568.2449415 167.99485766 -623.82194286 166.79371347 -673.6875 187.875 C-674.45191406 188.19807129 -675.21632813 188.52114258 -676.00390625 188.85400391 C-716.57488191 206.35404704 -752.93980333 237.79405443 -780.42578125 272.08984375 C-782.42734602 274.55463767 -784.48469752 276.95872849 -786.56787109 279.35449219 C-793.25432409 287.08264927 -799.19813524 295.28012522 -805.09082031 303.62255859 C-806.58693595 305.73313396 -808.09880432 307.83119376 -809.6171875 309.92578125 C-819.45801737 323.5738666 -828.74108641 337.719057 -837.2734375 352.22265625 C-837.63018555 352.82561523 -837.98693359 353.42857422 -838.35449219 354.04980469 C-839.22140326 355.53177194 -840.06890748 357.02504982 -840.9140625 358.51953125 C-843.94231266 362.54163444 -847.23742808 364.64195273 -852.1875 365.4375 C-856.83477125 364.69061712 -858.3869841 363.1755159 -861.6875 359.875 C-863.46145805 356.32708389 -863.24966061 352.74577165 -862.6875 348.875 C-861.24417165 345.26887041 -859.26284362 342.08745036 -857.1875 338.8125 C-856.60943604 337.86930908 -856.03137207 336.92611816 -855.43579102 335.9543457 C-848.48986856 324.73145467 -841.1443479 313.76297269 -833.6875 302.875 C-833.14206543 302.07690918 -832.59663086 301.27881836 -832.03466797 300.45654297 C-820.85956722 284.174446 -808.70239896 268.72133683 -795.6875 253.875 C-795.03265625 253.11960937 -794.3778125 252.36421875 -793.703125 251.5859375 C-792.04161482 249.67291431 -790.36523056 247.77379624 -788.6875 245.875 C-788.10871094 245.20339844 -787.52992188 244.53179688 -786.93359375 243.83984375 C-776.31701796 231.72739036 -764.9144819 219.69767384 -752.171875 209.8125 C-750.47442266 208.48870069 -748.81872555 207.11004136 -747.203125 205.6875 C-708.65975473 171.82280473 -655.55626124 149.15774529 -603.9296875 148.63671875 C-603.11691849 148.62683426 -602.30414948 148.61694977 -601.4667511 148.60676575 C-562.99862319 148.23675041 -525.79054632 153.83873008 -489.1015625 165.51953125 C-484.47111617 166.98107373 -479.78336888 168.12190962 -475.0625 169.25 C-467.22365387 171.14478953 -459.51672148 173.36742016 -451.8125 175.75 C-450.72074463 176.08749268 -449.62898926 176.42498535 -448.50415039 176.77270508 C-443.11241588 178.45390419 -437.740296 180.18137773 -432.38671875 181.98046875 C-431.39333496 182.30998535 -430.39995117 182.63950195 -429.37646484 182.97900391 C-427.51424628 183.59953269 -425.65612155 184.23254423 -423.80322266 184.88037109 C-422.54904541 185.29730225 -422.54904541 185.29730225 -421.26953125 185.72265625 C-420.54999268 185.97023682 -419.8304541 186.21781738 -419.08911133 186.47290039 C-412.65512825 187.55013635 -407.35783567 185.09144425 -401.74609375 182.33203125 C-400.61854424 181.79214317 -400.61854424 181.79214317 -399.46821594 181.24134827 C-397.01628122 180.06524099 -394.57080689 178.87629028 -392.125 177.6875 C-390.40775297 176.86169742 -388.68997286 176.0370025 -386.97167969 175.21337891 C-384.36318319 173.9628493 -381.75504395 172.71163041 -379.14859009 171.45684814 C-371.60647827 167.82610706 -364.02959897 164.27473714 -356.4375 160.75 C-354.01541159 159.62285073 -351.59346984 158.49539584 -349.171875 157.3671875 C-348.56908218 157.08640854 -347.96628937 156.80562958 -347.3452301 156.51634216 C-339.78245475 152.99093698 -332.23561125 149.43166051 -324.6875 145.875 C-313.42047742 140.56643185 -302.14323354 135.28062665 -290.85351562 130.02050781 C-280.78676356 125.32946554 -270.73434203 120.60852116 -260.6875 115.875 C-249.4210935 110.56688693 -238.14472976 105.28096943 -226.85552979 100.02151489 C-216.01826988 94.97189881 -205.19969131 89.88321908 -194.38470459 84.78610229 C-184.87498464 80.30509573 -175.35279451 75.85312332 -165.8125 71.4375 C-155.07901406 66.46915813 -144.37860948 61.43371053 -133.6875 56.375 C-122.99638953 51.316289 -112.29594247 46.28093724 -101.5625 41.3125 C-91.37884326 36.59811714 -81.21474612 31.844072 -71.0625 27.0625 C-70.00686356 26.56537003 -70.00686356 26.56537003 -68.92990112 26.05819702 C-62.28846227 22.93020407 -55.6482291 19.79965493 -49.00830078 16.66845703 C-45.1253804 14.83742102 -41.24203172 13.0072958 -37.35845947 11.17764282 C-35.18505678 10.15330512 -33.01219513 9.12782628 -30.83935547 8.10229492 C-27.12610804 6.35112631 -23.40833034 4.61000301 -19.6875 2.875 C-18.28709473 2.22035767 -18.28709473 2.22035767 -16.85839844 1.55249023 C-16.06336914 1.18841064 -15.26833984 0.82433105 -14.44921875 0.44921875 C-13.79526123 0.14846436 -13.14130371 -0.15229004 -12.4675293 -0.4621582 C-8.00829034 -2.1226758 -4.41732538 -1.34765859 0 0 Z " fill="#3B92ED" transform="translate(914.6875,299.125)"/>
<path d="M0 0 C0.72256485 0.24274155 1.4451297 0.48548309 2.18959045 0.73558044 C4.47340444 1.50425302 6.75427514 2.28126715 9.03515625 3.05859375 C10.59291128 3.58454057 12.15085237 4.10993665 13.70898438 4.63476562 C17.50738878 5.91551883 21.3031786 7.20375555 25.09765625 8.49609375 C21.76367284 11.23472298 18.14426489 13.03322773 14.25390625 14.83203125 C13.58154938 15.14733292 12.9091925 15.46263458 12.21646118 15.78749084 C10.0122311 16.81978294 7.80499178 17.845461 5.59765625 18.87109375 C4.04913816 19.59475218 2.50080038 20.31879654 0.95263672 21.04321289 C-3.66260113 23.20083344 -8.28175026 25.34996993 -12.90234375 27.49609375 C-13.86376282 27.94266327 -13.86376282 27.94266327 -14.84460449 28.39825439 C-19.94130652 30.76493468 -25.03925077 33.12893043 -30.13867188 35.48974609 C-39.74901146 39.94468088 -49.32747269 44.46555357 -58.90234375 48.99609375 C-70.71044253 54.58332993 -82.53602004 60.12847535 -94.39111328 65.61547852 C-103.53688844 69.85230776 -112.65977464 74.13647201 -121.77734375 78.43359375 C-133.08505945 83.76286155 -144.40247323 89.0703559 -155.73376465 94.3493042 C-165.84377461 99.06006996 -175.93805137 103.80363563 -186.02734375 108.55859375 C-197.4306333 113.93267545 -208.8509136 119.26746229 -220.29003906 124.56494141 C-230.19653535 129.1574409 -240.07686782 133.80445514 -249.95410156 138.45947266 C-260.53635615 143.44648487 -271.12958573 148.40909834 -281.73376465 153.3493042 C-291.84377491 158.0600701 -301.93802301 162.80369539 -312.02734375 167.55859375 C-323.45823544 172.9453794 -334.90396015 178.29788882 -346.37133789 183.60668945 C-352.80545969 186.58733508 -359.23113261 189.58490861 -365.6484375 192.6015625 C-366.38437134 192.94735855 -367.12030518 193.2931546 -367.87854004 193.64942932 C-371.48208778 195.34292709 -375.08471857 197.03833509 -378.68603516 198.73657227 C-379.98857841 199.34918139 -381.29114864 199.96173318 -382.59375 200.57421875 C-383.74045166 201.1146582 -384.88715332 201.65509766 -386.06860352 202.21191406 C-390.69241176 204.30730748 -394.84247446 205.33013814 -399.90234375 204.49609375 C-404.17117196 202.41981544 -407.17062196 199.98543887 -408.90234375 195.49609375 C-409.4621607 191.02482846 -409.40695873 186.86152251 -407.83984375 182.62109375 C-402.32323209 176.57061645 -392.98071166 173.54540415 -385.71484375 170.05859375 C-385.07952728 169.75274353 -384.44421082 169.44689331 -383.78964233 169.1317749 C-373.49246365 164.17523198 -363.1482847 159.32485217 -352.77416992 154.53125 C-343.50566443 150.24803313 -334.26278544 145.91255056 -325.02734375 141.55859375 C-314.3290097 136.5161204 -303.62310133 131.49072023 -292.90234375 126.49609375 C-282.22392636 121.52090181 -271.5593078 116.51707095 -260.90234375 111.49609375 C-249.63525732 106.18766033 -238.35807792 100.90172069 -227.06835938 95.64160156 C-217.00160731 90.95055929 -206.94918578 86.22961491 -196.90234375 81.49609375 C-185.63525732 76.18766033 -174.35807792 70.90172069 -163.06835938 65.64160156 C-153.00160731 60.95055929 -142.94918578 56.22961491 -132.90234375 51.49609375 C-121.63593725 46.18798068 -110.35957351 40.90206318 -99.07037354 35.64260864 C-89.68532694 31.26965066 -80.31313124 26.86999441 -70.94723511 22.45617676 C-59.42397 17.02572281 -47.89308782 11.6125137 -36.33984375 6.24609375 C-34.64674072 5.45900024 -34.64674072 5.45900024 -32.91943359 4.65600586 C-30.8473364 3.69500811 -28.77263243 2.73960218 -26.69482422 1.79101562 C-24.90884973 0.96282812 -23.13522313 0.10711445 -21.37939453 -0.78320312 C-20.61481934 -1.16025391 -19.85024414 -1.53730469 -19.0625 -1.92578125 C-18.42062744 -2.25674805 -17.77875488 -2.58771484 -17.11743164 -2.92871094 C-11.37694037 -4.41935322 -5.42197577 -1.86173998 0 0 Z " fill="#71D669" transform="translate(483.90234375,505.50390625)"/>
<path d="M0 0 C3.97900835 2.25226888 5.41847501 3.70814502 7.3125 7.875 C8.08203922 12.75403733 8.1180219 16.39130065 5.72802734 20.79345703 C2.95025006 24.33713046 0.13707248 25.93235557 -3.8671875 27.7421875 C-4.57019989 28.07636688 -5.27321228 28.41054626 -5.99752808 28.75485229 C-7.47948563 29.45727486 -8.96489529 30.15245569 -10.45349121 30.84069824 C-12.60537588 31.83697816 -14.74591672 32.85392999 -16.88378906 33.87988281 C-21.18379369 35.94040781 -25.4972725 37.97159379 -29.8125 40 C-31.39441565 40.74526124 -32.97628323 41.49062451 -34.55810547 42.23608398 C-45.51088347 47.39463289 -56.47813267 52.52196244 -67.453125 57.63305664 C-76.91841769 62.04215513 -86.3671844 66.48578943 -95.8125 70.9375 C-107.21575735 76.3116492 -118.6360705 81.64636884 -130.07519531 86.94384766 C-139.9816916 91.53634715 -149.86202407 96.18336139 -159.73925781 100.83837891 C-170.3215124 105.82539112 -180.91474198 110.78800459 -191.5189209 115.72821045 C-202.35636151 120.777923 -213.17512369 125.86669372 -223.99029541 130.96389771 C-233.50001536 135.44490427 -243.02220549 139.89687668 -252.5625 144.3125 C-263.29598594 149.28084187 -273.99639052 154.31628947 -284.6875 159.375 C-296.48019238 164.95494633 -308.28965657 170.49437566 -320.13012695 175.97241211 C-331.88890115 181.41810539 -343.60776456 186.94805556 -355.32403564 192.48448181 C-357.29227083 193.41163632 -359.26374613 194.33157606 -361.23583984 195.25048828 C-363.31144488 196.2273645 -365.37786122 197.22467627 -367.42431641 198.26123047 C-368.1879248 198.63779785 -368.9515332 199.01436523 -369.73828125 199.40234375 C-370.34969971 199.7180835 -370.96111816 200.03382324 -371.59106445 200.35913086 C-377.28378576 201.75993674 -383.22522038 199.21314067 -388.58984375 197.37109375 C-389.3124086 197.1283522 -390.03497345 196.88561066 -390.7794342 196.63551331 C-393.06324819 195.86684073 -395.34411889 195.0898266 -397.625 194.3125 C-399.18275503 193.78655318 -400.74069612 193.2611571 -402.29882812 192.73632812 C-406.09723253 191.45557492 -409.89302235 190.1673382 -413.6875 188.875 C-410.14688933 185.92903472 -406.18235939 184.0701659 -402.0390625 182.13671875 C-401.28311798 181.77962326 -400.52717346 181.42252777 -399.74832153 181.05461121 C-397.27176966 179.88615367 -394.792199 178.72426183 -392.3125 177.5625 C-390.58089212 176.74725276 -388.84944843 175.9316567 -387.11816406 175.11572266 C-381.97784392 172.69522838 -376.8334643 170.28346822 -371.6875 167.875 C-370.97484985 167.54143494 -370.26219971 167.20786987 -369.5279541 166.86419678 C-363.3545577 163.97567725 -357.17778187 161.09445547 -350.99880981 158.21788025 C-342.21659518 154.12853549 -333.45096932 150.0043357 -324.6875 145.875 C-313.42047742 140.56643185 -302.14323354 135.28062665 -290.85351562 130.02050781 C-280.78676356 125.32946554 -270.73434203 120.60852116 -260.6875 115.875 C-249.4210935 110.56688693 -238.14472976 105.28096943 -226.85552979 100.02151489 C-216.01826988 94.97189881 -205.19969131 89.88321908 -194.38470459 84.78610229 C-184.87498464 80.30509573 -175.35279451 75.85312332 -165.8125 71.4375 C-155.07901406 66.46915813 -144.37860948 61.43371053 -133.6875 56.375 C-122.99638953 51.316289 -112.29594247 46.28093724 -101.5625 41.3125 C-91.37884326 36.59811714 -81.21474612 31.844072 -71.0625 27.0625 C-70.00686356 26.56537003 -70.00686356 26.56537003 -68.92990112 26.05819702 C-62.28846227 22.93020407 -55.6482291 19.79965493 -49.00830078 16.66845703 C-45.1253804 14.83742102 -41.24203172 13.0072958 -37.35845947 11.17764282 C-35.18505678 10.15330512 -33.01219513 9.12782628 -30.83935547 8.10229492 C-27.12610804 6.35112631 -23.40833034 4.61000301 -19.6875 2.875 C-18.28709473 2.22035767 -18.28709473 2.22035767 -16.85839844 1.55249023 C-16.06336914 1.18841064 -15.26833984 0.82433105 -14.44921875 0.44921875 C-13.79526123 0.14846436 -13.14130371 -0.15229004 -12.4675293 -0.4621582 C-8.00829034 -2.1226758 -4.41732538 -1.34765859 0 0 Z " fill="#71D669" transform="translate(914.6875,299.125)"/>
</svg>
