<svg xmlns="http://www.w3.org/2000/svg" xmlns:xlink="http://www.w3.org/1999/xlink" width="500" zoomAndPan="magnify" viewBox="0 0 375 374.999991" height="500" preserveAspectRatio="xMidYMid meet" version="1.0"><defs><clipPath id="f9d20cf24a"><path d="M 187.5 0 C 83.945312 0 0 83.945312 0 187.5 C 0 291.054688 83.945312 375 187.5 375 C 291.054688 375 375 291.054688 375 187.5 C 375 83.945312 291.054688 0 187.5 0 Z M 187.5 0 " clip-rule="nonzero"/></clipPath><clipPath id="ea296f521d"><path d="M 42 118 L 232 118 L 232 244 L 42 244 Z M 42 118 " clip-rule="nonzero"/></clipPath><clipPath id="eaadfbdc37"><path d="M 17.972656 180.777344 L 185.40625 118.902344 L 231.027344 242.359375 L 63.59375 304.230469 Z M 17.972656 180.777344 " clip-rule="nonzero"/></clipPath><clipPath id="ca48fc28cd"><path d="M 17.972656 180.777344 L 1134.46875 -231.816406 L 1180.089844 -108.359375 L 63.59375 304.230469 Z M 17.972656 180.777344 " clip-rule="nonzero"/></clipPath><clipPath id="6e4f2dd1e9"><path d="M 145 131 L 334 131 L 334 256 L 145 256 Z M 145 131 " clip-rule="nonzero"/></clipPath><clipPath id="cf15699c7d"><path d="M 145.183594 132.355469 L 312.621094 70.480469 L 358.242188 193.9375 L 190.808594 255.8125 Z M 145.183594 132.355469 " clip-rule="nonzero"/></clipPath><clipPath id="9ea05627d4"><path d="M 358.523438 194.214844 L -757.972656 606.808594 L -803.597656 483.355469 L 312.902344 70.761719 Z M 358.523438 194.214844 " clip-rule="nonzero"/></clipPath></defs><g clip-path="url(#f9d20cf24a)"><rect x="-37.5" width="450" fill="#ffffff" y="-37.499999" height="449.999989" fill-opacity="1"/></g><path stroke-linecap="round" transform="matrix(0.744878, -0.349026, 0.349026, 0.744878, 27.022988, 260.316691)" fill="none" stroke-linejoin="miter" d="M 4.000672 3.998084 L 421.549356 3.999522 " stroke="#ffe500" stroke-width="8" stroke-opacity="1" stroke-miterlimit="4"/><g clip-path="url(#ea296f521d)"><g clip-path="url(#eaadfbdc37)"><g clip-path="url(#ca48fc28cd)"><path fill="#413c99" d="M 1156.726562 -161.238281 C 1154.996094 -162.234375 1152.507812 -161.589844 1151.511719 -159.855469 C 1103.679688 -79.738281 1060.90625 -93.65625 1015.597656 -108.539062 C 971.511719 -123.0625 925.871094 -138.097656 877.503906 -64.597656 C 877.113281 -64.179688 876.722656 -63.765625 876.570312 -63.4375 C 828.738281 16.683594 785.96875 2.765625 740.65625 -12.121094 C 694.449219 -27.21875 646.597656 -43.074219 595.625 42.566406 C 595.476562 42.894531 595.324219 43.222656 595.261719 43.792969 C 549.265625 115.597656 507.71875 102.046875 463.875 87.4375 C 420.03125 72.828125 374.152344 57.878906 325.78125 131.378906 C 325.390625 131.796875 325 132.210938 324.609375 132.628906 C 276.777344 212.746094 234.003906 198.832031 188.695312 183.945312 C 141.742188 168.304688 93.980469 152.6875 43.160156 238 C 42.164062 239.730469 42.808594 242.21875 44.539062 243.214844 C 46.273438 244.210938 48.761719 243.566406 49.757812 241.835938 C 97.585938 161.714844 140.359375 175.632812 185.667969 190.519531 C 212.332031 199.207031 239.410156 208.289062 267.476562 197.914062 C 285.949219 191.089844 304.882812 175.910156 324.089844 146.726562 C 324.484375 146.308594 324.960938 146.132812 325.265625 145.476562 C 373.097656 65.359375 415.867188 79.273438 461.179688 94.160156 C 487.839844 102.847656 514.917969 111.929688 542.988281 101.554688 C 563.617188 93.929688 584.71875 75.773438 606.296875 39.714844 C 606.449219 39.386719 606.601562 39.054688 606.664062 38.488281 C 652.65625 -33.316406 694.203125 -19.765625 737.960938 -5.398438 C 764.621094 3.292969 791.699219 12.375 819.769531 2 C 838.242188 -4.828125 856.933594 -19.914062 876.382812 -49.1875 C 876.773438 -49.605469 877.164062 -50.023438 877.316406 -50.351562 C 925.148438 -130.46875 967.917969 -116.550781 1013.230469 -101.667969 C 1039.890625 -92.976562 1066.96875 -83.898438 1095.039062 -94.269531 C 1115.667969 -101.894531 1136.769531 -120.054688 1158.347656 -156.113281 C 1159.105469 -157.753906 1158.546875 -160.003906 1156.726562 -161.238281 Z M 1156.726562 -161.238281 " fill-opacity="1" fill-rule="nonzero"/></g></g></g><g clip-path="url(#6e4f2dd1e9)"><g clip-path="url(#cf15699c7d)"><g clip-path="url(#9ea05627d4)"><path fill="#413c99" d="M -780.230469 536.230469 C -778.5 537.226562 -776.011719 536.582031 -775.015625 534.851562 C -727.183594 454.734375 -684.414062 468.648438 -639.101562 483.535156 C -595.015625 498.054688 -549.378906 513.089844 -501.007812 439.59375 C -500.617188 439.175781 -500.226562 438.757812 -500.074219 438.429688 C -452.242188 358.3125 -409.472656 372.226562 -364.160156 387.113281 C -317.953125 402.210938 -270.101562 418.066406 -219.132812 332.425781 C -218.980469 332.097656 -218.828125 331.769531 -218.765625 331.203125 C -172.769531 259.398438 -131.226562 272.949219 -87.378906 287.558594 C -43.535156 302.167969 2.34375 317.113281 50.714844 243.613281 C 51.105469 243.199219 51.496094 242.78125 51.886719 242.363281 C 99.71875 162.246094 142.488281 176.160156 187.800781 191.046875 C 234.753906 206.6875 282.515625 222.304688 333.335938 136.992188 C 334.332031 135.261719 333.6875 132.773438 331.953125 131.777344 C 330.222656 130.78125 327.734375 131.429688 326.738281 133.160156 C 278.90625 213.277344 236.136719 199.363281 190.824219 184.476562 C 164.164062 175.785156 137.085938 166.707031 109.019531 177.078125 C 90.542969 183.90625 71.613281 199.082031 52.402344 228.265625 C 52.011719 228.683594 51.53125 228.859375 51.230469 229.519531 C 3.398438 309.636719 -39.371094 295.71875 -84.683594 280.835938 C -111.34375 272.144531 -138.421875 263.066406 -166.492188 273.4375 C -187.125 281.0625 -208.226562 299.222656 -229.800781 335.28125 C -229.953125 335.609375 -230.105469 335.9375 -230.167969 336.503906 C -276.164062 408.308594 -317.707031 394.757812 -361.464844 380.390625 C -388.125 371.699219 -415.203125 362.621094 -443.273438 372.992188 C -461.746094 379.820312 -480.4375 394.90625 -499.886719 424.179688 C -500.277344 424.597656 -500.667969 425.015625 -500.820312 425.34375 C -548.652344 505.460938 -591.421875 491.546875 -636.734375 476.660156 C -663.394531 467.972656 -690.472656 458.890625 -718.542969 469.261719 C -739.175781 476.886719 -760.277344 495.046875 -781.851562 531.105469 C -782.609375 532.75 -782.050781 534.996094 -780.230469 536.230469 Z M -780.230469 536.230469 " fill-opacity="1" fill-rule="nonzero"/></g></g></g></svg>