<?xml version="1.0" encoding="UTF-8"?>
<svg width="86px" height="128px" viewBox="0 0 86 128" version="1.1" xmlns="http://www.w3.org/2000/svg" xmlns:xlink="http://www.w3.org/1999/xlink">
    <defs>
        <linearGradient x1="56.05%" y1="0%" x2="56.05%" y2="100%" id="gradient">
            <stop stop-color="#0cf" offset="0%"></stop>
            <stop stop-color="#0F021F" offset="100%"></stop>
        </linearGradient>
    </defs>
    <g stroke="none" stroke-width="1" fill="none" fill-rule="evenodd">
        <g transform="translate(-21, 0)" fill="url(#gradient)">
            <path d="M57.4924227,128 C51.4936683,123.379061 47.3278666,116.601685 44.9950176,107.66787 C41.4957442,94.267148 53.2970094,84.6673576 59.9919037,68.8519856 C62.9912809,61.7665463 62.1581205,54.9891697 57.4924227,48.5198556 C62.4679549,51.2931537 66.1338604,54.9899046 68.4901391,59.6101083 C69.5312142,61.6514539 72.4893087,73.9350181 64.5482637,90.9780579 C61.6416172,97.2162912 65.4907619,111.826715 73.4891011,102.122744 C78.8213272,95.6534296 78.9879593,88.5679904 73.9889973,80.866426 C81.6540724,86.7196149 86.1531382,93.4969916 87.4861947,101.198556 C88.8192513,108.90012 85.9865061,116.755716 78.9879593,124.765343 C91.3187323,117.063779 99.6503356,108.129964 103.982769,97.9638989 C108.315203,87.7978339 107.981939,77.4777377 102.982977,67.0036101 C102.982977,69.7761733 102.816345,72.3947052 102.483081,74.8592058 C102.149817,77.3237064 101.64992,79.788207 100.983392,82.2527076 C98.9838073,73.0108303 95.1512698,65.6173285 89.4857795,60.0722022 C83.8202893,54.5270758 79.4878555,47.2876053 76.4884783,38.3537906 C75.82195,40.5102286 75.4886859,42.2045728 75.4886859,43.4368231 C75.4886859,44.6690734 75.9885821,46.6714801 76.9883745,49.4440433 C72.3226766,46.055355 69.4899315,41.2803851 68.4901391,35.1191336 C67.7426258,30.5125602 70.9896201,19.4079422 72.4893087,12.9386282 C73.4891011,8.62575211 72.4893087,4.31287605 69.4899315,0 C68.4901391,4.00481348 64.4909695,9.08784597 57.4924227,15.2490975 C50.4938759,21.410349 47.9943949,28.4957882 49.9939797,36.5054152 C48.327659,35.2731649 46.9946024,33.8868833 45.99481,32.3465704 C44.9950176,30.8062575 44.6617535,28.3417569 44.9950176,24.9530686 C41.9956404,31.1143201 41.9956404,38.1997593 44.9950176,46.2093863 C49.4940835,58.2238267 50.0092315,64.4970245 45.99481,67.465704 C44.2911792,68.7255453 40.8837326,69.5847811 38.9962632,65.6173285 C36.6520199,60.6897391 35.7667855,50.2552882 32.9975088,46.6714801 C29.6648675,42.3586041 25.6656979,40.3561974 21,40.6642599 C25.3324337,43.1287605 28.498443,47.2876053 30.4980278,53.1407942 C30.9885163,54.5765531 32.9975088,63.3068592 28.9983392,71.6245487 C24.9991696,79.9422383 23.2529746,94.6227324 26.9987544,104.433213 C30.997924,114.907341 41.1624801,122.762936 57.4924227,128 Z"></path>
        </g>
    </g>
</svg>